<svg xmlns="http://www.w3.org/2000/svg" version="1.1" xmlns:xlink="http://www.w3.org/1999/xlink" xmlns:svgjs="http://svgjs.com/svgjs" width="1440" height="560" preserveAspectRatio="none" viewBox="0 0 1440 560"><g mask="url(&quot;#SvgjsMask1003&quot;)" fill="none"><path d="M676.36-86.8C574.05-39.14 654.43 262.56 425.43 288.51 196.43 314.46 55 443.5-76.43 445.31" stroke="rgba(51,121,194,0.58)" stroke-width="2"></path><path d="M887.48-1.63C765.16 35.53 805.91 384.28 552.29 384.58 298.67 384.88 60.92 136.7-118.08 132.58" stroke="rgba(51,121,194,0.58)" stroke-width="2"></path><path d="M721.42-0.5C617.43 38.91 685.25 336.53 451.8 353.32 218.35 370.11 50.54 470.24-87.44 470.92" stroke="rgba(51,121,194,0.58)" stroke-width="2"></path><path d="M681.89-104.21C584.73-84.72 612.6 164.15 390.73 164.77 168.86 165.39-43.34 53.28-191.59 52.77" stroke="rgba(51,121,194,0.58)" stroke-width="2"></path><path d="M1113.35-12.6C921.65 11.81 810.66 447.42 493.33 449 176 450.58 35.45 260.73-126.69 258.6" stroke="rgba(51,121,194,0.58)" stroke-width="2"></path></g><defs><mask id="SvgjsMask1003"><rect width="1440" height="560" fill="#ffffff"></rect></mask></defs></svg>