<svg xmlns="http://www.w3.org/2000/svg" version="1.1" xmlns:xlink="http://www.w3.org/1999/xlink" xmlns:svgjs="http://svgjs.com/svgjs" width="1440" height="560" preserveAspectRatio="none" viewBox="0 0 1440 560"><g mask="url(&quot;#SvgjsMask1008&quot;)" fill="none"><path d="M870.95 625.19C956.45 616.13 917.74 441.69 1154.49 430.55 1391.25 419.41 1569.2 210.56 1721.58 206.55" stroke="rgba(51,121,194,0.58)" stroke-width="2"></path><path d="M172.61 605.38C299.17 599.31 396.34 380.75 626.65 380.19 856.97 379.63 853.68 450.19 1080.7 450.19 1307.72 450.19 1419.89 380.4 1534.74 380.19" stroke="rgba(51,121,194,0.58)" stroke-width="2"></path><path d="M461.2 657.82C555.46 655.2 533.73 521.69 811 516.75 1088.27 511.81 1327.39 300.87 1510.6 298.35" stroke="rgba(51,121,194,0.58)" stroke-width="2"></path><path d="M738.74 595.58C893.8 554.23 944.21 130.87 1176.63 126.23 1409.06 121.59 1498.27 280.69 1614.53 283.03" stroke="rgba(51,121,194,0.58)" stroke-width="2"></path><path d="M265.63 573.36C401.44 558.88 482.81 265.67 715.66 263.63 948.51 261.59 940.67 333.63 1165.69 333.63 1390.7 333.63 1501.86 263.84 1615.72 263.63" stroke="rgba(51,121,194,0.58)" stroke-width="2"></path></g><defs><mask id="SvgjsMask1008"><rect width="1440" height="560" fill="#ffffff"></rect></mask></defs></svg>