<svg xmlns="http://www.w3.org/2000/svg" version="1.1" xmlns:xlink="http://www.w3.org/1999/xlink" xmlns:svgjs="http://svgjs.com/svgjs" width="1440" height="560" preserveAspectRatio="none" viewBox="0 0 1440 560"><g mask="url(&quot;#SvgjsMask1001&quot;)" fill="none"><path d="M1.48 200.95L66.43 238.45L66.43 313.45L1.48 350.95L-63.47 313.45L-63.47 238.45zM66.43 538.45L131.39 575.95L131.39 650.95L66.43 688.45L1.48 650.95L1.48 575.95zM131.39 -24.05L196.34 13.45L196.34 88.45L131.39 125.95L66.43 88.45L66.43 13.45zM196.34 88.45L261.3 125.95L261.3 200.95L196.34 238.45L131.39 200.95L131.39 125.95zM196.34 538.45L261.3 575.95L261.3 650.95L196.34 688.45L131.39 650.95L131.39 575.95zM261.3 -24.05L326.25 13.45L326.25 88.45L261.3 125.95L196.34 88.45L196.34 13.45zM326.25 88.45L391.2 125.95L391.2 200.95L326.25 238.45L261.3 200.95L261.3 125.95zM326.25 313.45L391.2 350.95L391.2 425.95L326.25 463.45L261.3 425.95L261.3 350.95zM391.2 425.95L456.16 463.45L456.16 538.45L391.2 575.95L326.25 538.45L326.25 463.45zM651.02 -24.05L715.97 13.45L715.97 88.45L651.02 125.95L586.06 88.45L586.06 13.45zM910.83 -24.05L975.79 13.45L975.79 88.45L910.83 125.95L845.88 88.45L845.88 13.45zM975.79 538.45L1040.74 575.95L1040.74 650.95L975.79 688.45L910.83 650.95L910.83 575.95zM1040.74 -24.05L1105.69 13.45L1105.69 88.45L1040.74 125.95L975.79 88.45L975.79 13.45zM1105.69 88.45L1170.65 125.95L1170.65 200.95L1105.69 238.45L1040.74 200.95L1040.74 125.95zM1170.65 -24.05L1235.6 13.45L1235.6 88.45L1170.65 125.95L1105.69 88.45L1105.69 13.45zM1235.6 313.45L1300.55 350.95L1300.55 425.95L1235.6 463.45L1170.65 425.95L1170.65 350.95zM1235.6 538.45L1300.55 575.95L1300.55 650.95L1235.6 688.45L1170.65 650.95L1170.65 575.95zM1300.56 425.95L1365.51 463.45L1365.51 538.45L1300.56 575.95L1235.6 538.45L1235.6 463.45zM1430.46 200.95L1495.42 238.45L1495.42 313.45L1430.46 350.95L1365.51 313.45L1365.51 238.45zM1495.42 313.45L1560.37 350.95L1560.37 425.95L1495.42 463.45L1430.46 425.95L1430.46 350.95zM1430.46 425.95L1495.42 463.45L1495.42 538.45L1430.46 575.95L1365.51 538.45L1365.51 463.45zM1495.42 538.45L1560.37 575.95L1560.37 650.95L1495.42 688.45L1430.46 650.95L1430.46 575.95z" stroke="#03305d" stroke-width="2"></path><path d="M-6.02 200.95 a7.5 7.5 0 1 0 15 0 a7.5 7.5 0 1 0 -15 0zM58.93 238.45 a7.5 7.5 0 1 0 15 0 a7.5 7.5 0 1 0 -15 0zM58.93 313.45 a7.5 7.5 0 1 0 15 0 a7.5 7.5 0 1 0 -15 0zM-6.02 350.95 a7.5 7.5 0 1 0 15 0 a7.5 7.5 0 1 0 -15 0zM-70.97 313.45 a7.5 7.5 0 1 0 15 0 a7.5 7.5 0 1 0 -15 0zM-70.97 238.45 a7.5 7.5 0 1 0 15 0 a7.5 7.5 0 1 0 -15 0zM58.93 538.45 a7.5 7.5 0 1 0 15 0 a7.5 7.5 0 1 0 -15 0zM123.89 575.95 a7.5 7.5 0 1 0 15 0 a7.5 7.5 0 1 0 -15 0zM123.89 650.95 a7.5 7.5 0 1 0 15 0 a7.5 7.5 0 1 0 -15 0zM58.93 688.45 a7.5 7.5 0 1 0 15 0 a7.5 7.5 0 1 0 -15 0zM-6.02 650.95 a7.5 7.5 0 1 0 15 0 a7.5 7.5 0 1 0 -15 0zM-6.02 575.95 a7.5 7.5 0 1 0 15 0 a7.5 7.5 0 1 0 -15 0zM123.89 -24.05 a7.5 7.5 0 1 0 15 0 a7.5 7.5 0 1 0 -15 0zM188.84 13.45 a7.5 7.5 0 1 0 15 0 a7.5 7.5 0 1 0 -15 0zM188.84 88.45 a7.5 7.5 0 1 0 15 0 a7.5 7.5 0 1 0 -15 0zM123.89 125.95 a7.5 7.5 0 1 0 15 0 a7.5 7.5 0 1 0 -15 0zM58.93 88.45 a7.5 7.5 0 1 0 15 0 a7.5 7.5 0 1 0 -15 0zM58.93 13.45 a7.5 7.5 0 1 0 15 0 a7.5 7.5 0 1 0 -15 0zM253.8 125.95 a7.5 7.5 0 1 0 15 0 a7.5 7.5 0 1 0 -15 0zM253.8 200.95 a7.5 7.5 0 1 0 15 0 a7.5 7.5 0 1 0 -15 0zM188.84 238.45 a7.5 7.5 0 1 0 15 0 a7.5 7.5 0 1 0 -15 0zM123.89 200.95 a7.5 7.5 0 1 0 15 0 a7.5 7.5 0 1 0 -15 0zM188.84 538.45 a7.5 7.5 0 1 0 15 0 a7.5 7.5 0 1 0 -15 0zM253.8 575.95 a7.5 7.5 0 1 0 15 0 a7.5 7.5 0 1 0 -15 0zM253.8 650.95 a7.5 7.5 0 1 0 15 0 a7.5 7.5 0 1 0 -15 0zM188.84 688.45 a7.5 7.5 0 1 0 15 0 a7.5 7.5 0 1 0 -15 0zM253.8 -24.05 a7.5 7.5 0 1 0 15 0 a7.5 7.5 0 1 0 -15 0zM318.75 13.45 a7.5 7.5 0 1 0 15 0 a7.5 7.5 0 1 0 -15 0zM318.75 88.45 a7.5 7.5 0 1 0 15 0 a7.5 7.5 0 1 0 -15 0zM383.7 125.95 a7.5 7.5 0 1 0 15 0 a7.5 7.5 0 1 0 -15 0zM383.7 200.95 a7.5 7.5 0 1 0 15 0 a7.5 7.5 0 1 0 -15 0zM318.75 238.45 a7.5 7.5 0 1 0 15 0 a7.5 7.5 0 1 0 -15 0zM318.75 313.45 a7.5 7.5 0 1 0 15 0 a7.5 7.5 0 1 0 -15 0zM383.7 350.95 a7.5 7.5 0 1 0 15 0 a7.5 7.5 0 1 0 -15 0zM383.7 425.95 a7.5 7.5 0 1 0 15 0 a7.5 7.5 0 1 0 -15 0zM318.75 463.45 a7.5 7.5 0 1 0 15 0 a7.5 7.5 0 1 0 -15 0zM253.8 425.95 a7.5 7.5 0 1 0 15 0 a7.5 7.5 0 1 0 -15 0zM253.8 350.95 a7.5 7.5 0 1 0 15 0 a7.5 7.5 0 1 0 -15 0zM448.66 463.45 a7.5 7.5 0 1 0 15 0 a7.5 7.5 0 1 0 -15 0zM448.66 538.45 a7.5 7.5 0 1 0 15 0 a7.5 7.5 0 1 0 -15 0zM383.7 575.95 a7.5 7.5 0 1 0 15 0 a7.5 7.5 0 1 0 -15 0zM318.75 538.45 a7.5 7.5 0 1 0 15 0 a7.5 7.5 0 1 0 -15 0zM643.52 -24.05 a7.5 7.5 0 1 0 15 0 a7.5 7.5 0 1 0 -15 0zM708.47 13.45 a7.5 7.5 0 1 0 15 0 a7.5 7.5 0 1 0 -15 0zM708.47 88.45 a7.5 7.5 0 1 0 15 0 a7.5 7.5 0 1 0 -15 0zM643.52 125.95 a7.5 7.5 0 1 0 15 0 a7.5 7.5 0 1 0 -15 0zM578.56 88.45 a7.5 7.5 0 1 0 15 0 a7.5 7.5 0 1 0 -15 0zM578.56 13.45 a7.5 7.5 0 1 0 15 0 a7.5 7.5 0 1 0 -15 0zM903.33 -24.05 a7.5 7.5 0 1 0 15 0 a7.5 7.5 0 1 0 -15 0zM968.29 13.45 a7.5 7.5 0 1 0 15 0 a7.5 7.5 0 1 0 -15 0zM968.29 88.45 a7.5 7.5 0 1 0 15 0 a7.5 7.5 0 1 0 -15 0zM903.33 125.95 a7.5 7.5 0 1 0 15 0 a7.5 7.5 0 1 0 -15 0zM838.38 88.45 a7.5 7.5 0 1 0 15 0 a7.5 7.5 0 1 0 -15 0zM838.38 13.45 a7.5 7.5 0 1 0 15 0 a7.5 7.5 0 1 0 -15 0zM968.29 538.45 a7.5 7.5 0 1 0 15 0 a7.5 7.5 0 1 0 -15 0zM1033.24 575.95 a7.5 7.5 0 1 0 15 0 a7.5 7.5 0 1 0 -15 0zM1033.24 650.95 a7.5 7.5 0 1 0 15 0 a7.5 7.5 0 1 0 -15 0zM968.29 688.45 a7.5 7.5 0 1 0 15 0 a7.5 7.5 0 1 0 -15 0zM903.33 650.95 a7.5 7.5 0 1 0 15 0 a7.5 7.5 0 1 0 -15 0zM903.33 575.95 a7.5 7.5 0 1 0 15 0 a7.5 7.5 0 1 0 -15 0zM1033.24 -24.05 a7.5 7.5 0 1 0 15 0 a7.5 7.5 0 1 0 -15 0zM1098.19 13.45 a7.5 7.5 0 1 0 15 0 a7.5 7.5 0 1 0 -15 0zM1098.19 88.45 a7.5 7.5 0 1 0 15 0 a7.5 7.5 0 1 0 -15 0zM1033.24 125.95 a7.5 7.5 0 1 0 15 0 a7.5 7.5 0 1 0 -15 0zM1163.15 125.95 a7.5 7.5 0 1 0 15 0 a7.5 7.5 0 1 0 -15 0zM1163.15 200.95 a7.5 7.5 0 1 0 15 0 a7.5 7.5 0 1 0 -15 0zM1098.19 238.45 a7.5 7.5 0 1 0 15 0 a7.5 7.5 0 1 0 -15 0zM1033.24 200.95 a7.5 7.5 0 1 0 15 0 a7.5 7.5 0 1 0 -15 0zM1163.15 -24.05 a7.5 7.5 0 1 0 15 0 a7.5 7.5 0 1 0 -15 0zM1228.1 13.45 a7.5 7.5 0 1 0 15 0 a7.5 7.5 0 1 0 -15 0zM1228.1 88.45 a7.5 7.5 0 1 0 15 0 a7.5 7.5 0 1 0 -15 0zM1228.1 313.45 a7.5 7.5 0 1 0 15 0 a7.5 7.5 0 1 0 -15 0zM1293.05 350.95 a7.5 7.5 0 1 0 15 0 a7.5 7.5 0 1 0 -15 0zM1293.05 425.95 a7.5 7.5 0 1 0 15 0 a7.5 7.5 0 1 0 -15 0zM1228.1 463.45 a7.5 7.5 0 1 0 15 0 a7.5 7.5 0 1 0 -15 0zM1163.15 425.95 a7.5 7.5 0 1 0 15 0 a7.5 7.5 0 1 0 -15 0zM1163.15 350.95 a7.5 7.5 0 1 0 15 0 a7.5 7.5 0 1 0 -15 0zM1228.1 538.45 a7.5 7.5 0 1 0 15 0 a7.5 7.5 0 1 0 -15 0zM1293.05 575.95 a7.5 7.5 0 1 0 15 0 a7.5 7.5 0 1 0 -15 0zM1293.05 650.95 a7.5 7.5 0 1 0 15 0 a7.5 7.5 0 1 0 -15 0zM1228.1 688.45 a7.5 7.5 0 1 0 15 0 a7.5 7.5 0 1 0 -15 0zM1163.15 650.95 a7.5 7.5 0 1 0 15 0 a7.5 7.5 0 1 0 -15 0zM1163.15 575.95 a7.5 7.5 0 1 0 15 0 a7.5 7.5 0 1 0 -15 0zM1293.06 425.95 a7.5 7.5 0 1 0 15 0 a7.5 7.5 0 1 0 -15 0zM1358.01 463.45 a7.5 7.5 0 1 0 15 0 a7.5 7.5 0 1 0 -15 0zM1358.01 538.45 a7.5 7.5 0 1 0 15 0 a7.5 7.5 0 1 0 -15 0zM1293.06 575.95 a7.5 7.5 0 1 0 15 0 a7.5 7.5 0 1 0 -15 0zM1422.96 200.95 a7.5 7.5 0 1 0 15 0 a7.5 7.5 0 1 0 -15 0zM1487.92 238.45 a7.5 7.5 0 1 0 15 0 a7.5 7.5 0 1 0 -15 0zM1487.92 313.45 a7.5 7.5 0 1 0 15 0 a7.5 7.5 0 1 0 -15 0zM1422.96 350.95 a7.5 7.5 0 1 0 15 0 a7.5 7.5 0 1 0 -15 0zM1358.01 313.45 a7.5 7.5 0 1 0 15 0 a7.5 7.5 0 1 0 -15 0zM1358.01 238.45 a7.5 7.5 0 1 0 15 0 a7.5 7.5 0 1 0 -15 0zM1552.87 350.95 a7.5 7.5 0 1 0 15 0 a7.5 7.5 0 1 0 -15 0zM1552.87 425.95 a7.5 7.5 0 1 0 15 0 a7.5 7.5 0 1 0 -15 0zM1487.92 463.45 a7.5 7.5 0 1 0 15 0 a7.5 7.5 0 1 0 -15 0zM1422.96 425.95 a7.5 7.5 0 1 0 15 0 a7.5 7.5 0 1 0 -15 0zM1487.92 538.45 a7.5 7.5 0 1 0 15 0 a7.5 7.5 0 1 0 -15 0zM1422.96 575.95 a7.5 7.5 0 1 0 15 0 a7.5 7.5 0 1 0 -15 0zM1552.87 575.95 a7.5 7.5 0 1 0 15 0 a7.5 7.5 0 1 0 -15 0zM1552.87 650.95 a7.5 7.5 0 1 0 15 0 a7.5 7.5 0 1 0 -15 0zM1487.92 688.45 a7.5 7.5 0 1 0 15 0 a7.5 7.5 0 1 0 -15 0zM1422.96 650.95 a7.5 7.5 0 1 0 15 0 a7.5 7.5 0 1 0 -15 0z" fill="#03305d"></path><path d="M179.64 367.48L222.94 392.48L222.94 442.48L179.64 467.48L136.34 442.48L136.34 392.48zM222.94 442.48L266.24 467.48L266.24 517.48L222.94 542.48L179.64 517.48L179.64 467.48zM309.55 142.48L352.85 167.48L352.85 217.48L309.55 242.48L266.24 217.48L266.24 167.48zM309.55 292.48L352.85 317.48L352.85 367.48L309.55 392.48L266.24 367.48L266.24 317.48zM352.85 367.48L396.15 392.48L396.15 442.48L352.85 467.48L309.55 442.48L309.55 392.48zM396.15 -7.52L439.45 17.48L439.45 67.48L396.15 92.48L352.85 67.48L352.85 17.48zM439.45 67.48L482.76 92.48L482.76 142.48L439.45 167.48L396.15 142.48L396.15 92.48zM482.76 -7.52L526.06 17.48L526.06 67.48L482.76 92.48L439.45 67.48L439.45 17.48zM482.76 292.48L526.06 317.48L526.06 367.48L482.76 392.48L439.45 367.48L439.45 317.48zM526.06 367.48L569.36 392.48L569.36 442.48L526.06 467.48L482.76 442.48L482.76 392.48zM526.06 517.48L569.36 542.48L569.36 592.48L526.06 617.48L482.76 592.48L482.76 542.48zM569.36 -7.52L612.66 17.48L612.66 67.48L569.36 92.48L526.06 67.48L526.06 17.48zM569.36 292.48L612.66 317.48L612.66 367.48L569.36 392.48L526.06 367.48L526.06 317.48zM655.97 -7.52L699.27 17.48L699.27 67.48L655.97 92.48L612.66 67.48L612.66 17.48zM699.27 217.48L742.57 242.48L742.57 292.48L699.27 317.48L655.97 292.48L655.97 242.48zM742.57 -7.52L785.87 17.48L785.87 67.48L742.57 92.48L699.27 67.48L699.27 17.48zM742.57 442.48L785.87 467.48L785.87 517.48L742.57 542.48L699.27 517.48L699.27 467.48zM829.18 -7.52L872.48 17.48L872.48 67.48L829.18 92.48L785.87 67.48L785.87 17.48zM872.48 67.48L915.78 92.48L915.78 142.48L872.48 167.48L829.18 142.48L829.18 92.48zM829.18 442.48L872.48 467.48L872.48 517.48L829.18 542.48L785.87 517.48L785.87 467.48zM872.48 517.48L915.78 542.48L915.78 592.48L872.48 617.48L829.18 592.48L829.18 542.48zM959.08 67.48L1002.39 92.48L1002.39 142.48L959.08 167.48L915.78 142.48L915.78 92.48zM959.08 217.48L1002.39 242.48L1002.39 292.48L959.08 317.48L915.78 292.48L915.78 242.48zM915.78 442.48L959.08 467.48L959.08 517.48L915.78 542.48L872.48 517.48L872.48 467.48zM1088.99 -7.52L1132.29 17.48L1132.29 67.48L1088.99 92.48L1045.69 67.48L1045.69 17.48zM1132.29 67.48L1175.6 92.48L1175.6 142.48L1132.29 167.48L1088.99 142.48L1088.99 92.48zM1088.99 442.48L1132.29 467.48L1132.29 517.48L1088.99 542.48L1045.69 517.48L1045.69 467.48zM1175.6 292.48L1218.9 317.48L1218.9 367.48L1175.6 392.48L1132.29 367.48L1132.29 317.48zM1218.9 367.48L1262.2 392.48L1262.2 442.48L1218.9 467.48L1175.6 442.48L1175.6 392.48zM1305.5 67.48L1348.81 92.48L1348.81 142.48L1305.5 167.48L1262.2 142.48L1262.2 92.48zM1435.41 -7.52L1478.71 17.48L1478.71 67.48L1435.41 92.48L1392.11 67.48L1392.11 17.48zM1478.71 67.48L1522.02 92.48L1522.02 142.48L1478.71 167.48L1435.41 142.48L1435.41 92.48zM1435.41 292.48L1478.71 317.48L1478.71 367.48L1435.41 392.48L1392.11 367.48L1392.11 317.48z" stroke="rgba(6, 80, 156, 0.93)" stroke-width="2"></path></g><defs><mask id="SvgjsMask1001"><rect width="1440" height="560" fill="#ffffff"></rect></mask></defs></svg>