<svg xmlns="http://www.w3.org/2000/svg" version="1.1" xmlns:xlink="http://www.w3.org/1999/xlink" xmlns:svgjs="http://svgjs.com/svgjs" width="1440" height="560" preserveAspectRatio="none" viewBox="0 0 1440 560"><g mask="url(&quot;#SvgjsMask1012&quot;)" fill="none"><path d="M-56.34 397.7L-56.34 397.7" stroke="#132e65" stroke-width="1.5"></path><path d="M-56.34 397.7L-41.04 500.93" stroke="#132e65" stroke-width="1.5"></path><path d="M-56.34 397.7L47.01 357.94" stroke="#132e65" stroke-width="1.5"></path><path d="M-56.34 397.7L50.97 532.2" stroke="#132e65" stroke-width="1.5"></path><path d="M-56.34 397.7L57.34 648.56" stroke="#132e65" stroke-width="1.5"></path><path d="M-41.04 500.93L-41.04 500.93" stroke="#132e65" stroke-width="1.5"></path><path d="M-41.04 500.93L50.97 532.2" stroke="#132e65" stroke-width="1.5"></path><path d="M-63.5 699.79L-63.5 699.79" stroke="#132e65" stroke-width="1.5"></path><path d="M-63.5 699.79L57.34 648.56" stroke="#132e65" stroke-width="1.5"></path><path d="M-63.5 699.79L-41.04 500.93" stroke="#132e65" stroke-width="1.5"></path><path d="M-63.5 699.79L50.97 532.2" stroke="#132e65" stroke-width="1.5"></path><path d="M-63.5 699.79L-56.34 397.7" stroke="#132e65" stroke-width="1.5"></path><path d="M47.01 357.94L47.01 357.94" stroke="#132e65" stroke-width="1.5"></path><path d="M47.01 357.94L-41.04 500.93" stroke="#132e65" stroke-width="1.5"></path><path d="M47.01 357.94L50.97 532.2" stroke="#132e65" stroke-width="1.5"></path><path d="M47.01 357.94L255.71 358.07" stroke="#132e65" stroke-width="1.5"></path><path d="M47.01 357.94L252.77 490.57" stroke="#132e65" stroke-width="1.5"></path><path d="M50.97 532.2L50.97 532.2" stroke="#132e65" stroke-width="1.5"></path><path d="M50.97 532.2L57.34 648.56" stroke="#132e65" stroke-width="1.5"></path><path d="M57.34 648.56L57.34 648.56" stroke="#132e65" stroke-width="1.5"></path><path d="M57.34 648.56L-41.04 500.93" stroke="#132e65" stroke-width="1.5"></path><path d="M57.34 648.56L247.93 707.69" stroke="#132e65" stroke-width="1.5"></path><path d="M255.71 358.07L255.71 358.07" stroke="#132e65" stroke-width="1.5"></path><path d="M255.71 358.07L363.37 363.42" stroke="#132e65" stroke-width="1.5"></path><path d="M255.71 358.07L252.77 490.57" stroke="#132e65" stroke-width="1.5"></path><path d="M255.71 358.07L407.04 491.65" stroke="#132e65" stroke-width="1.5"></path><path d="M255.71 358.07L50.97 532.2" stroke="#132e65" stroke-width="1.5"></path><path d="M252.77 490.57L252.77 490.57" stroke="#132e65" stroke-width="1.5"></path><path d="M247.93 707.69L247.93 707.69" stroke="#132e65" stroke-width="1.5"></path><path d="M247.93 707.69L252.77 490.57" stroke="#132e65" stroke-width="1.5"></path><path d="M247.93 707.69L510.69 685.13" stroke="#132e65" stroke-width="1.5"></path><path d="M247.93 707.69L50.97 532.2" stroke="#132e65" stroke-width="1.5"></path><path d="M247.93 707.69L407.04 491.65" stroke="#132e65" stroke-width="1.5"></path><path d="M363.37 363.42L363.37 363.42" stroke="#132e65" stroke-width="1.5"></path><path d="M363.37 363.42L407.04 491.65" stroke="#132e65" stroke-width="1.5"></path><path d="M363.37 363.42L252.77 490.57" stroke="#132e65" stroke-width="1.5"></path><path d="M363.37 363.42L541.72 391.62" stroke="#132e65" stroke-width="1.5"></path><path d="M363.37 363.42L496.63 536.91" stroke="#132e65" stroke-width="1.5"></path><path d="M363.37 363.42L661.16 410.32" stroke="#132e65" stroke-width="1.5"></path><path d="M407.04 491.65L407.04 491.65" stroke="#132e65" stroke-width="1.5"></path><path d="M407.04 491.65L496.63 536.91" stroke="#132e65" stroke-width="1.5"></path><path d="M407.04 491.65L252.77 490.57" stroke="#132e65" stroke-width="1.5"></path><path d="M407.04 491.65L541.72 391.62" stroke="#132e65" stroke-width="1.5"></path><path d="M407.04 491.65L510.69 685.13" stroke="#132e65" stroke-width="1.5"></path><path d="M541.72 391.62L541.72 391.62" stroke="#132e65" stroke-width="1.5"></path><path d="M541.72 391.62L661.16 410.32" stroke="#132e65" stroke-width="1.5"></path><path d="M541.72 391.62L496.63 536.91" stroke="#132e65" stroke-width="1.5"></path><path d="M496.63 536.91L496.63 536.91" stroke="#132e65" stroke-width="1.5"></path><path d="M496.63 536.91L510.69 685.13" stroke="#132e65" stroke-width="1.5"></path><path d="M496.63 536.91L686.33 546.37" stroke="#132e65" stroke-width="1.5"></path><path d="M496.63 536.91L661.16 410.32" stroke="#132e65" stroke-width="1.5"></path><path d="M510.69 685.13L510.69 685.13" stroke="#132e65" stroke-width="1.5"></path><path d="M510.69 685.13L687.18 653.18" stroke="#132e65" stroke-width="1.5"></path><path d="M510.69 685.13L686.33 546.37" stroke="#132e65" stroke-width="1.5"></path><path d="M642.46 241.39L642.46 241.39" stroke="#132e65" stroke-width="1.5"></path><path d="M642.46 241.39L802.31 237.08" stroke="#132e65" stroke-width="1.5"></path><path d="M642.46 241.39L661.16 410.32" stroke="#132e65" stroke-width="1.5"></path><path d="M642.46 241.39L541.72 391.62" stroke="#132e65" stroke-width="1.5"></path><path d="M642.46 241.39L363.37 363.42" stroke="#132e65" stroke-width="1.5"></path><path d="M642.46 241.39L686.33 546.37" stroke="#132e65" stroke-width="1.5"></path><path d="M642.46 241.39L799.28 514.66" stroke="#132e65" stroke-width="1.5"></path><path d="M661.16 410.32L661.16 410.32" stroke="#132e65" stroke-width="1.5"></path><path d="M661.16 410.32L686.33 546.37" stroke="#132e65" stroke-width="1.5"></path><path d="M661.16 410.32L799.28 514.66" stroke="#132e65" stroke-width="1.5"></path><path d="M686.33 546.37L686.33 546.37" stroke="#132e65" stroke-width="1.5"></path><path d="M686.33 546.37L687.18 653.18" stroke="#132e65" stroke-width="1.5"></path><path d="M686.33 546.37L799.28 514.66" stroke="#132e65" stroke-width="1.5"></path><path d="M686.33 546.37L541.72 391.62" stroke="#132e65" stroke-width="1.5"></path><path d="M687.18 653.18L687.18 653.18" stroke="#132e65" stroke-width="1.5"></path><path d="M687.18 653.18L845.53 712.17" stroke="#132e65" stroke-width="1.5"></path><path d="M687.18 653.18L799.28 514.66" stroke="#132e65" stroke-width="1.5"></path><path d="M802.31 237.08L802.31 237.08" stroke="#132e65" stroke-width="1.5"></path><path d="M802.31 237.08L970.62 252.24" stroke="#132e65" stroke-width="1.5"></path><path d="M802.31 237.08L661.16 410.32" stroke="#132e65" stroke-width="1.5"></path><path d="M799.28 514.66L799.28 514.66" stroke="#132e65" stroke-width="1.5"></path><path d="M799.28 514.66L967.54 546.41" stroke="#132e65" stroke-width="1.5"></path><path d="M845.53 712.17L845.53 712.17" stroke="#132e65" stroke-width="1.5"></path><path d="M845.53 712.17L986.75 668.14" stroke="#132e65" stroke-width="1.5"></path><path d="M1005.39 -107.66L1005.39 -107.66" stroke="#132e65" stroke-width="1.5"></path><path d="M1005.39 -107.66L1148.71 -71.05" stroke="#132e65" stroke-width="1.5"></path><path d="M1005.39 -107.66L998.39 56.68" stroke="#132e65" stroke-width="1.5"></path><path d="M998.39 56.68L998.39 56.68" stroke="#132e65" stroke-width="1.5"></path><path d="M998.39 56.68L1104.41 86.76" stroke="#132e65" stroke-width="1.5"></path><path d="M970.62 252.24L970.62 252.24" stroke="#132e65" stroke-width="1.5"></path><path d="M970.62 252.24L997.96 393.9" stroke="#132e65" stroke-width="1.5"></path><path d="M970.62 252.24L1106.9 195.71" stroke="#132e65" stroke-width="1.5"></path><path d="M970.62 252.24L1123.42 372.03" stroke="#132e65" stroke-width="1.5"></path><path d="M970.62 252.24L998.39 56.68" stroke="#132e65" stroke-width="1.5"></path><path d="M970.62 252.24L1104.41 86.76" stroke="#132e65" stroke-width="1.5"></path><path d="M997.96 393.9L997.96 393.9" stroke="#132e65" stroke-width="1.5"></path><path d="M997.96 393.9L1123.42 372.03" stroke="#132e65" stroke-width="1.5"></path><path d="M967.54 546.41L967.54 546.41" stroke="#132e65" stroke-width="1.5"></path><path d="M967.54 546.41L1088.84 558.88" stroke="#132e65" stroke-width="1.5"></path><path d="M967.54 546.41L986.75 668.14" stroke="#132e65" stroke-width="1.5"></path><path d="M967.54 546.41L997.96 393.9" stroke="#132e65" stroke-width="1.5"></path><path d="M967.54 546.41L845.53 712.17" stroke="#132e65" stroke-width="1.5"></path><path d="M967.54 546.41L1123.42 372.03" stroke="#132e65" stroke-width="1.5"></path><path d="M986.75 668.14L986.75 668.14" stroke="#132e65" stroke-width="1.5"></path><path d="M986.75 668.14L1088.84 558.88" stroke="#132e65" stroke-width="1.5"></path><path d="M986.75 668.14L1158.68 690.47" stroke="#132e65" stroke-width="1.5"></path><path d="M986.75 668.14L799.28 514.66" stroke="#132e65" stroke-width="1.5"></path><path d="M1148.71 -71.05L1148.71 -71.05" stroke="#132e65" stroke-width="1.5"></path><path d="M1148.71 -71.05L1290.92 -57.14" stroke="#132e65" stroke-width="1.5"></path><path d="M1148.71 -71.05L1251.71 39.79" stroke="#132e65" stroke-width="1.5"></path><path d="M1148.71 -71.05L1104.41 86.76" stroke="#132e65" stroke-width="1.5"></path><path d="M1104.41 86.76L1104.41 86.76" stroke="#132e65" stroke-width="1.5"></path><path d="M1104.41 86.76L1106.9 195.71" stroke="#132e65" stroke-width="1.5"></path><path d="M1104.41 86.76L1251.71 39.79" stroke="#132e65" stroke-width="1.5"></path><path d="M1106.9 195.71L1106.9 195.71" stroke="#132e65" stroke-width="1.5"></path><path d="M1106.9 195.71L1278.07 221.57" stroke="#132e65" stroke-width="1.5"></path><path d="M1123.42 372.03L1123.42 372.03" stroke="#132e65" stroke-width="1.5"></path><path d="M1123.42 372.03L1290.99 350.22" stroke="#132e65" stroke-width="1.5"></path><path d="M1123.42 372.03L1106.9 195.71" stroke="#132e65" stroke-width="1.5"></path><path d="M1088.84 558.88L1088.84 558.88" stroke="#132e65" stroke-width="1.5"></path><path d="M1088.84 558.88L1158.68 690.47" stroke="#132e65" stroke-width="1.5"></path><path d="M1158.68 690.47L1158.68 690.47" stroke="#132e65" stroke-width="1.5"></path><path d="M1158.68 690.47L1243.53 677.36" stroke="#132e65" stroke-width="1.5"></path><path d="M1290.92 -57.14L1290.92 -57.14" stroke="#132e65" stroke-width="1.5"></path><path d="M1290.92 -57.14L1251.71 39.79" stroke="#132e65" stroke-width="1.5"></path><path d="M1290.92 -57.14L1426.19 -109.51" stroke="#132e65" stroke-width="1.5"></path><path d="M1290.92 -57.14L1403.22 101.68" stroke="#132e65" stroke-width="1.5"></path><path d="M1251.71 39.79L1251.71 39.79" stroke="#132e65" stroke-width="1.5"></path><path d="M1278.07 221.57L1278.07 221.57" stroke="#132e65" stroke-width="1.5"></path><path d="M1278.07 221.57L1396.1 195.34" stroke="#132e65" stroke-width="1.5"></path><path d="M1278.07 221.57L1290.99 350.22" stroke="#132e65" stroke-width="1.5"></path><path d="M1290.99 350.22L1290.99 350.22" stroke="#132e65" stroke-width="1.5"></path><path d="M1290.99 350.22L1426.04 344.99" stroke="#132e65" stroke-width="1.5"></path><path d="M1290.99 350.22L1396.1 195.34" stroke="#132e65" stroke-width="1.5"></path><path d="M1284.36 559.92L1284.36 559.92" stroke="#132e65" stroke-width="1.5"></path><path d="M1284.36 559.92L1243.53 677.36" stroke="#132e65" stroke-width="1.5"></path><path d="M1284.36 559.92L1457.5 518.8" stroke="#132e65" stroke-width="1.5"></path><path d="M1284.36 559.92L1446.45 638.36" stroke="#132e65" stroke-width="1.5"></path><path d="M1284.36 559.92L1158.68 690.47" stroke="#132e65" stroke-width="1.5"></path><path d="M1284.36 559.92L1088.84 558.88" stroke="#132e65" stroke-width="1.5"></path><path d="M1243.53 677.36L1243.53 677.36" stroke="#132e65" stroke-width="1.5"></path><path d="M1243.53 677.36L1088.84 558.88" stroke="#132e65" stroke-width="1.5"></path><path d="M1243.53 677.36L1446.45 638.36" stroke="#132e65" stroke-width="1.5"></path><path d="M1243.53 677.36L986.75 668.14" stroke="#132e65" stroke-width="1.5"></path><path d="M1426.19 -109.51L1426.19 -109.51" stroke="#132e65" stroke-width="1.5"></path><path d="M1426.19 -109.51L1571.83 -70.7" stroke="#132e65" stroke-width="1.5"></path><path d="M1426.19 -109.51L1403.22 101.68" stroke="#132e65" stroke-width="1.5"></path><path d="M1426.19 -109.51L1251.71 39.79" stroke="#132e65" stroke-width="1.5"></path><path d="M1426.19 -109.51L1587.21 88.37" stroke="#132e65" stroke-width="1.5"></path><path d="M1426.19 -109.51L1148.71 -71.05" stroke="#132e65" stroke-width="1.5"></path><path d="M1403.22 101.68L1403.22 101.68" stroke="#132e65" stroke-width="1.5"></path><path d="M1403.22 101.68L1396.1 195.34" stroke="#132e65" stroke-width="1.5"></path><path d="M1403.22 101.68L1251.71 39.79" stroke="#132e65" stroke-width="1.5"></path><path d="M1396.1 195.34L1396.1 195.34" stroke="#132e65" stroke-width="1.5"></path><path d="M1396.1 195.34L1426.04 344.99" stroke="#132e65" stroke-width="1.5"></path><path d="M1396.1 195.34L1581.28 252.67" stroke="#132e65" stroke-width="1.5"></path><path d="M1396.1 195.34L1251.71 39.79" stroke="#132e65" stroke-width="1.5"></path><path d="M1426.04 344.99L1426.04 344.99" stroke="#132e65" stroke-width="1.5"></path><path d="M1426.04 344.99L1457.5 518.8" stroke="#132e65" stroke-width="1.5"></path><path d="M1426.04 344.99L1581.28 252.67" stroke="#132e65" stroke-width="1.5"></path><path d="M1426.04 344.99L1607.33 343.61" stroke="#132e65" stroke-width="1.5"></path><path d="M1426.04 344.99L1278.07 221.57" stroke="#132e65" stroke-width="1.5"></path><path d="M1457.5 518.8L1457.5 518.8" stroke="#132e65" stroke-width="1.5"></path><path d="M1457.5 518.8L1446.45 638.36" stroke="#132e65" stroke-width="1.5"></path><path d="M1457.5 518.8L1603.59 672.18" stroke="#132e65" stroke-width="1.5"></path><path d="M1446.45 638.36L1446.45 638.36" stroke="#132e65" stroke-width="1.5"></path><path d="M1446.45 638.36L1603.59 672.18" stroke="#132e65" stroke-width="1.5"></path><path d="M1571.83 -70.7L1571.83 -70.7" stroke="#132e65" stroke-width="1.5"></path><path d="M1571.83 -70.7L1587.21 88.37" stroke="#132e65" stroke-width="1.5"></path><path d="M1571.83 -70.7L1403.22 101.68" stroke="#132e65" stroke-width="1.5"></path><path d="M1571.83 -70.7L1290.92 -57.14" stroke="#132e65" stroke-width="1.5"></path><path d="M1571.83 -70.7L1396.1 195.34" stroke="#132e65" stroke-width="1.5"></path><path d="M1587.21 88.37L1587.21 88.37" stroke="#132e65" stroke-width="1.5"></path><path d="M1587.21 88.37L1581.28 252.67" stroke="#132e65" stroke-width="1.5"></path><path d="M1581.28 252.67L1581.28 252.67" stroke="#132e65" stroke-width="1.5"></path><path d="M1581.28 252.67L1607.33 343.61" stroke="#132e65" stroke-width="1.5"></path><path d="M1581.28 252.67L1403.22 101.68" stroke="#132e65" stroke-width="1.5"></path><path d="M1607.33 343.61L1607.33 343.61" stroke="#132e65" stroke-width="1.5"></path><path d="M1607.33 343.61L1457.5 518.8" stroke="#132e65" stroke-width="1.5"></path><path d="M1603.59 672.18L1603.59 672.18" stroke="#132e65" stroke-width="1.5"></path><circle r="5" cx="-56.34" cy="397.7" fill="#132e65"></circle><circle r="5" cx="-41.04" cy="500.93" fill="#132e65"></circle><circle r="5" cx="-63.5" cy="699.79" fill="#132e65"></circle><circle r="5" cx="47.01" cy="357.94" fill="#132e65"></circle><circle r="5" cx="50.97" cy="532.2" fill="#132e65"></circle><circle r="5" cx="57.34" cy="648.56" fill="#132e65"></circle><circle r="5" cx="255.71" cy="358.07" fill="#132e65"></circle><circle r="5" cx="252.77" cy="490.57" fill="#132e65"></circle><circle r="5" cx="247.93" cy="707.69" fill="#132e65"></circle><circle r="5" cx="363.37" cy="363.42" fill="#132e65"></circle><circle r="5" cx="407.04" cy="491.65" fill="#132e65"></circle><circle r="5" cx="541.72" cy="391.62" fill="#132e65"></circle><circle r="5" cx="496.63" cy="536.91" fill="#132e65"></circle><circle r="5" cx="510.69" cy="685.13" fill="#132e65"></circle><circle r="5" cx="642.46" cy="241.39" fill="#132e65"></circle><circle r="5" cx="661.16" cy="410.32" fill="#132e65"></circle><circle r="5" cx="686.33" cy="546.37" fill="#132e65"></circle><circle r="5" cx="687.18" cy="653.18" fill="#132e65"></circle><circle r="5" cx="802.31" cy="237.08" fill="#132e65"></circle><circle r="5" cx="799.28" cy="514.66" fill="#132e65"></circle><circle r="5" cx="845.53" cy="712.17" fill="#132e65"></circle><circle r="5" cx="1005.39" cy="-107.66" fill="#132e65"></circle><circle r="5" cx="998.39" cy="56.68" fill="#132e65"></circle><circle r="5" cx="970.62" cy="252.24" fill="#132e65"></circle><circle r="5" cx="997.96" cy="393.9" fill="#132e65"></circle><circle r="5" cx="967.54" cy="546.41" fill="#132e65"></circle><circle r="5" cx="986.75" cy="668.14" fill="#132e65"></circle><circle r="5" cx="1148.71" cy="-71.05" fill="#132e65"></circle><circle r="5" cx="1104.41" cy="86.76" fill="#132e65"></circle><circle r="5" cx="1106.9" cy="195.71" fill="#132e65"></circle><circle r="5" cx="1123.42" cy="372.03" fill="#132e65"></circle><circle r="5" cx="1088.84" cy="558.88" fill="#132e65"></circle><circle r="5" cx="1158.68" cy="690.47" fill="#132e65"></circle><circle r="5" cx="1290.92" cy="-57.14" fill="#132e65"></circle><circle r="5" cx="1251.71" cy="39.79" fill="#132e65"></circle><circle r="5" cx="1278.07" cy="221.57" fill="#132e65"></circle><circle r="5" cx="1290.99" cy="350.22" fill="#132e65"></circle><circle r="5" cx="1284.36" cy="559.92" fill="#132e65"></circle><circle r="5" cx="1243.53" cy="677.36" fill="#132e65"></circle><circle r="5" cx="1426.19" cy="-109.51" fill="#132e65"></circle><circle r="5" cx="1403.22" cy="101.68" fill="#132e65"></circle><circle r="5" cx="1396.1" cy="195.34" fill="#132e65"></circle><circle r="5" cx="1426.04" cy="344.99" fill="#132e65"></circle><circle r="5" cx="1457.5" cy="518.8" fill="#132e65"></circle><circle r="5" cx="1446.45" cy="638.36" fill="#132e65"></circle><circle r="5" cx="1571.83" cy="-70.7" fill="#132e65"></circle><circle r="5" cx="1587.21" cy="88.37" fill="#132e65"></circle><circle r="5" cx="1581.28" cy="252.67" fill="#132e65"></circle><circle r="5" cx="1607.33" cy="343.61" fill="#132e65"></circle><circle r="5" cx="1603.59" cy="672.18" fill="#132e65"></circle><path d="M379.22 492.19L379.22 492.19" stroke="hsl(220.20000000000005, 68.3%, 30.6%)" stroke-width="1.5"></path><path d="M379.22 492.19L231.76 517.88" stroke="hsl(220.20000000000005, 68.3%, 30.6%)" stroke-width="1.5"></path><path d="M379.22 492.19L539.31 502.33" stroke="hsl(220.20000000000005, 68.3%, 30.6%)" stroke-width="1.5"></path><path d="M379.22 492.19L551.16 406.05" stroke="hsl(220.20000000000005, 68.3%, 30.6%)" stroke-width="1.5"></path><path d="M379.22 492.19L503.24 643.67" stroke="hsl(220.20000000000005, 68.3%, 30.6%)" stroke-width="1.5"></path><path d="M379.22 492.19L384.22 703.19" stroke="hsl(220.20000000000005, 68.3%, 30.6%)" stroke-width="1.5"></path><path d="M826.57 674.13L826.57 674.13" stroke="hsl(220.20000000000005, 68.3%, 30.6%)" stroke-width="1.5"></path><path d="M826.57 674.13L939.85 640.16" stroke="hsl(220.20000000000005, 68.3%, 30.6%)" stroke-width="1.5"></path><path d="M826.57 674.13L803.38 511.52" stroke="hsl(220.20000000000005, 68.3%, 30.6%)" stroke-width="1.5"></path><path d="M826.57 674.13L662.64 542.89" stroke="hsl(220.20000000000005, 68.3%, 30.6%)" stroke-width="1.5"></path><path d="M826.57 674.13L1011.08 557.11" stroke="hsl(220.20000000000005, 68.3%, 30.6%)" stroke-width="1.5"></path><path d="M826.57 674.13L821.56 372.06" stroke="hsl(220.20000000000005, 68.3%, 30.6%)" stroke-width="1.5"></path><path d="M1154.01 499.75L1154.01 499.75" stroke="hsl(220.20000000000005, 68.3%, 30.6%)" stroke-width="1.5"></path><path d="M1154.01 499.75L1136.52 388.23" stroke="hsl(220.20000000000005, 68.3%, 30.6%)" stroke-width="1.5"></path><path d="M1154.01 499.75L1273.85 526.85" stroke="hsl(220.20000000000005, 68.3%, 30.6%)" stroke-width="1.5"></path><path d="M1154.01 499.75L1011.08 557.11" stroke="hsl(220.20000000000005, 68.3%, 30.6%)" stroke-width="1.5"></path><path d="M1154.01 499.75L1273.77 641.78" stroke="hsl(220.20000000000005, 68.3%, 30.6%)" stroke-width="1.5"></path><path d="M1154.01 499.75L1295.92 357.2" stroke="hsl(220.20000000000005, 68.3%, 30.6%)" stroke-width="1.5"></path><path d="M1295.92 357.2L1295.92 357.2" stroke="hsl(220.20000000000005, 68.3%, 30.6%)" stroke-width="1.5"></path><path d="M1295.92 357.2L1298.77 241.65" stroke="hsl(220.20000000000005, 68.3%, 30.6%)" stroke-width="1.5"></path><path d="M1295.92 357.2L1136.52 388.23" stroke="hsl(220.20000000000005, 68.3%, 30.6%)" stroke-width="1.5"></path><path d="M1295.92 357.2L1459.55 340.4" stroke="hsl(220.20000000000005, 68.3%, 30.6%)" stroke-width="1.5"></path><path d="M1295.92 357.2L1273.85 526.85" stroke="hsl(220.20000000000005, 68.3%, 30.6%)" stroke-width="1.5"></path><path d="M1295.92 357.2L1147.81 243.92" stroke="hsl(220.20000000000005, 68.3%, 30.6%)" stroke-width="1.5"></path><path d="M1273.77 641.78L1273.77 641.78" stroke="hsl(220.20000000000005, 68.3%, 30.6%)" stroke-width="1.5"></path><path d="M1273.77 641.78L1273.85 526.85" stroke="hsl(220.20000000000005, 68.3%, 30.6%)" stroke-width="1.5"></path><path d="M1273.77 641.78L1405.65 661.3" stroke="hsl(220.20000000000005, 68.3%, 30.6%)" stroke-width="1.5"></path><path d="M1273.77 641.78L1451.04 525.53" stroke="hsl(220.20000000000005, 68.3%, 30.6%)" stroke-width="1.5"></path><path d="M1273.77 641.78L1011.08 557.11" stroke="hsl(220.20000000000005, 68.3%, 30.6%)" stroke-width="1.5"></path><path d="M1580.01 -95.01L1580.01 -95.01" stroke="hsl(220.20000000000005, 68.3%, 30.6%)" stroke-width="1.5"></path><path d="M1580.01 -95.01L1411.51 -110.64" stroke="hsl(220.20000000000005, 68.3%, 30.6%)" stroke-width="1.5"></path><path d="M1580.01 -95.01L1396.07 68.6" stroke="hsl(220.20000000000005, 68.3%, 30.6%)" stroke-width="1.5"></path><path d="M1580.01 -95.01L1296.97 -93.88" stroke="hsl(220.20000000000005, 68.3%, 30.6%)" stroke-width="1.5"></path><path d="M1580.01 -95.01L1582.3 196.04" stroke="hsl(220.20000000000005, 68.3%, 30.6%)" stroke-width="1.5"></path><path d="M1580.01 -95.01L1280.69 100.22" stroke="hsl(220.20000000000005, 68.3%, 30.6%)" stroke-width="1.5"></path><path d="M1582.3 196.04L1582.3 196.04" stroke="hsl(220.20000000000005, 68.3%, 30.6%)" stroke-width="1.5"></path><path d="M1582.3 196.04L1557.17 361.21" stroke="hsl(220.20000000000005, 68.3%, 30.6%)" stroke-width="1.5"></path><path d="M1582.3 196.04L1459.55 340.4" stroke="hsl(220.20000000000005, 68.3%, 30.6%)" stroke-width="1.5"></path><path d="M1582.3 196.04L1396.07 68.6" stroke="hsl(220.20000000000005, 68.3%, 30.6%)" stroke-width="1.5"></path><path d="M1570.64 502.2L1570.64 502.2" stroke="hsl(220.20000000000005, 68.3%, 30.6%)" stroke-width="1.5"></path><path d="M1570.64 502.2L1451.04 525.53" stroke="hsl(220.20000000000005, 68.3%, 30.6%)" stroke-width="1.5"></path><path d="M1570.64 502.2L1557.17 361.21" stroke="hsl(220.20000000000005, 68.3%, 30.6%)" stroke-width="1.5"></path><path d="M1570.64 502.2L1554.02 670.16" stroke="hsl(220.20000000000005, 68.3%, 30.6%)" stroke-width="1.5"></path><path d="M1570.64 502.2L1459.55 340.4" stroke="hsl(220.20000000000005, 68.3%, 30.6%)" stroke-width="1.5"></path><path d="M1554.02 670.16L1554.02 670.16" stroke="hsl(220.20000000000005, 68.3%, 30.6%)" stroke-width="1.5"></path><path d="M1554.02 670.16L1405.65 661.3" stroke="hsl(220.20000000000005, 68.3%, 30.6%)" stroke-width="1.5"></path><path d="M1554.02 670.16L1451.04 525.53" stroke="hsl(220.20000000000005, 68.3%, 30.6%)" stroke-width="1.5"></path><path d="M1554.02 670.16L1273.77 641.78" stroke="hsl(220.20000000000005, 68.3%, 30.6%)" stroke-width="1.5"></path><path d="M1554.02 670.16L1557.17 361.21" stroke="hsl(220.20000000000005, 68.3%, 30.6%)" stroke-width="1.5"></path><path d="M1554.02 670.16L1273.85 526.85" stroke="hsl(220.20000000000005, 68.3%, 30.6%)" stroke-width="1.5"></path><path d="M-106.12 526.78L-106.12 526.78" stroke="hsl(220.20000000000005, 68.3%, 30.6%)" stroke-width="1.5"></path><path d="M-106.12 526.78L-64.05 665.99" stroke="hsl(220.20000000000005, 68.3%, 30.6%)" stroke-width="1.5"></path><path d="M-106.12 526.78L73.41 551.67" stroke="hsl(220.20000000000005, 68.3%, 30.6%)" stroke-width="1.5"></path><path d="M-64.05 665.99L-64.05 665.99" stroke="hsl(220.20000000000005, 68.3%, 30.6%)" stroke-width="1.5"></path><path d="M-64.05 665.99L37.71 690.27" stroke="hsl(220.20000000000005, 68.3%, 30.6%)" stroke-width="1.5"></path><path d="M-64.05 665.99L73.41 551.67" stroke="hsl(220.20000000000005, 68.3%, 30.6%)" stroke-width="1.5"></path><path d="M73.41 551.67L73.41 551.67" stroke="hsl(220.20000000000005, 68.3%, 30.6%)" stroke-width="1.5"></path><path d="M73.41 551.67L37.71 690.27" stroke="hsl(220.20000000000005, 68.3%, 30.6%)" stroke-width="1.5"></path><path d="M73.41 551.67L231.76 517.88" stroke="hsl(220.20000000000005, 68.3%, 30.6%)" stroke-width="1.5"></path><path d="M37.71 690.27L37.71 690.27" stroke="hsl(220.20000000000005, 68.3%, 30.6%)" stroke-width="1.5"></path><path d="M37.71 690.27L229.09 674.51" stroke="hsl(220.20000000000005, 68.3%, 30.6%)" stroke-width="1.5"></path><path d="M37.71 690.27L-106.12 526.78" stroke="hsl(220.20000000000005, 68.3%, 30.6%)" stroke-width="1.5"></path><path d="M37.71 690.27L231.76 517.88" stroke="hsl(220.20000000000005, 68.3%, 30.6%)" stroke-width="1.5"></path><path d="M231.76 517.88L231.76 517.88" stroke="hsl(220.20000000000005, 68.3%, 30.6%)" stroke-width="1.5"></path><path d="M231.76 517.88L229.09 674.51" stroke="hsl(220.20000000000005, 68.3%, 30.6%)" stroke-width="1.5"></path><path d="M229.09 674.51L229.09 674.51" stroke="hsl(220.20000000000005, 68.3%, 30.6%)" stroke-width="1.5"></path><path d="M229.09 674.51L384.22 703.19" stroke="hsl(220.20000000000005, 68.3%, 30.6%)" stroke-width="1.5"></path><path d="M229.09 674.51L73.41 551.67" stroke="hsl(220.20000000000005, 68.3%, 30.6%)" stroke-width="1.5"></path><path d="M229.09 674.51L379.22 492.19" stroke="hsl(220.20000000000005, 68.3%, 30.6%)" stroke-width="1.5"></path><path d="M229.09 674.51L503.24 643.67" stroke="hsl(220.20000000000005, 68.3%, 30.6%)" stroke-width="1.5"></path><path d="M384.22 703.19L384.22 703.19" stroke="hsl(220.20000000000005, 68.3%, 30.6%)" stroke-width="1.5"></path><path d="M384.22 703.19L503.24 643.67" stroke="hsl(220.20000000000005, 68.3%, 30.6%)" stroke-width="1.5"></path><path d="M551.16 406.05L551.16 406.05" stroke="hsl(220.20000000000005, 68.3%, 30.6%)" stroke-width="1.5"></path><path d="M551.16 406.05L539.31 502.33" stroke="hsl(220.20000000000005, 68.3%, 30.6%)" stroke-width="1.5"></path><path d="M551.16 406.05L699.79 357.48" stroke="hsl(220.20000000000005, 68.3%, 30.6%)" stroke-width="1.5"></path><path d="M551.16 406.05L662.64 542.89" stroke="hsl(220.20000000000005, 68.3%, 30.6%)" stroke-width="1.5"></path><path d="M551.16 406.05L503.24 643.67" stroke="hsl(220.20000000000005, 68.3%, 30.6%)" stroke-width="1.5"></path><path d="M551.16 406.05L821.56 372.06" stroke="hsl(220.20000000000005, 68.3%, 30.6%)" stroke-width="1.5"></path><path d="M539.31 502.33L539.31 502.33" stroke="hsl(220.20000000000005, 68.3%, 30.6%)" stroke-width="1.5"></path><path d="M539.31 502.33L662.64 542.89" stroke="hsl(220.20000000000005, 68.3%, 30.6%)" stroke-width="1.5"></path><path d="M539.31 502.33L503.24 643.67" stroke="hsl(220.20000000000005, 68.3%, 30.6%)" stroke-width="1.5"></path><path d="M539.31 502.33L699.79 357.48" stroke="hsl(220.20000000000005, 68.3%, 30.6%)" stroke-width="1.5"></path><path d="M539.31 502.33L384.22 703.19" stroke="hsl(220.20000000000005, 68.3%, 30.6%)" stroke-width="1.5"></path><path d="M503.24 643.67L503.24 643.67" stroke="hsl(220.20000000000005, 68.3%, 30.6%)" stroke-width="1.5"></path><path d="M699.79 357.48L699.79 357.48" stroke="hsl(220.20000000000005, 68.3%, 30.6%)" stroke-width="1.5"></path><path d="M699.79 357.48L821.56 372.06" stroke="hsl(220.20000000000005, 68.3%, 30.6%)" stroke-width="1.5"></path><path d="M699.79 357.48L803.38 511.52" stroke="hsl(220.20000000000005, 68.3%, 30.6%)" stroke-width="1.5"></path><path d="M699.79 357.48L662.64 542.89" stroke="hsl(220.20000000000005, 68.3%, 30.6%)" stroke-width="1.5"></path><path d="M662.64 542.89L662.64 542.89" stroke="hsl(220.20000000000005, 68.3%, 30.6%)" stroke-width="1.5"></path><path d="M662.64 542.89L803.38 511.52" stroke="hsl(220.20000000000005, 68.3%, 30.6%)" stroke-width="1.5"></path><path d="M662.64 542.89L503.24 643.67" stroke="hsl(220.20000000000005, 68.3%, 30.6%)" stroke-width="1.5"></path><path d="M821.56 372.06L821.56 372.06" stroke="hsl(220.20000000000005, 68.3%, 30.6%)" stroke-width="1.5"></path><path d="M821.56 372.06L945.73 345.57" stroke="hsl(220.20000000000005, 68.3%, 30.6%)" stroke-width="1.5"></path><path d="M821.56 372.06L803.38 511.52" stroke="hsl(220.20000000000005, 68.3%, 30.6%)" stroke-width="1.5"></path><path d="M821.56 372.06L662.64 542.89" stroke="hsl(220.20000000000005, 68.3%, 30.6%)" stroke-width="1.5"></path><path d="M821.56 372.06L1011.08 557.11" stroke="hsl(220.20000000000005, 68.3%, 30.6%)" stroke-width="1.5"></path><path d="M803.38 511.52L803.38 511.52" stroke="hsl(220.20000000000005, 68.3%, 30.6%)" stroke-width="1.5"></path><path d="M945.73 345.57L945.73 345.57" stroke="hsl(220.20000000000005, 68.3%, 30.6%)" stroke-width="1.5"></path><path d="M945.73 345.57L1136.52 388.23" stroke="hsl(220.20000000000005, 68.3%, 30.6%)" stroke-width="1.5"></path><path d="M945.73 345.57L803.38 511.52" stroke="hsl(220.20000000000005, 68.3%, 30.6%)" stroke-width="1.5"></path><path d="M1011.08 557.11L1011.08 557.11" stroke="hsl(220.20000000000005, 68.3%, 30.6%)" stroke-width="1.5"></path><path d="M1011.08 557.11L939.85 640.16" stroke="hsl(220.20000000000005, 68.3%, 30.6%)" stroke-width="1.5"></path><path d="M1011.08 557.11L1136.52 388.23" stroke="hsl(220.20000000000005, 68.3%, 30.6%)" stroke-width="1.5"></path><path d="M939.85 640.16L939.85 640.16" stroke="hsl(220.20000000000005, 68.3%, 30.6%)" stroke-width="1.5"></path><path d="M1150.23 58.21L1150.23 58.21" stroke="hsl(220.20000000000005, 68.3%, 30.6%)" stroke-width="1.5"></path><path d="M1150.23 58.21L1280.69 100.22" stroke="hsl(220.20000000000005, 68.3%, 30.6%)" stroke-width="1.5"></path><path d="M1150.23 58.21L1147.81 243.92" stroke="hsl(220.20000000000005, 68.3%, 30.6%)" stroke-width="1.5"></path><path d="M1147.81 243.92L1147.81 243.92" stroke="hsl(220.20000000000005, 68.3%, 30.6%)" stroke-width="1.5"></path><path d="M1147.81 243.92L1136.52 388.23" stroke="hsl(220.20000000000005, 68.3%, 30.6%)" stroke-width="1.5"></path><path d="M1147.81 243.92L1298.77 241.65" stroke="hsl(220.20000000000005, 68.3%, 30.6%)" stroke-width="1.5"></path><path d="M1147.81 243.92L1280.69 100.22" stroke="hsl(220.20000000000005, 68.3%, 30.6%)" stroke-width="1.5"></path><path d="M1147.81 243.92L945.73 345.57" stroke="hsl(220.20000000000005, 68.3%, 30.6%)" stroke-width="1.5"></path><path d="M1136.52 388.23L1136.52 388.23" stroke="hsl(220.20000000000005, 68.3%, 30.6%)" stroke-width="1.5"></path><path d="M1136.52 388.23L1273.85 526.85" stroke="hsl(220.20000000000005, 68.3%, 30.6%)" stroke-width="1.5"></path><path d="M1296.97 -93.88L1296.97 -93.88" stroke="hsl(220.20000000000005, 68.3%, 30.6%)" stroke-width="1.5"></path><path d="M1296.97 -93.88L1411.51 -110.64" stroke="hsl(220.20000000000005, 68.3%, 30.6%)" stroke-width="1.5"></path><path d="M1296.97 -93.88L1396.07 68.6" stroke="hsl(220.20000000000005, 68.3%, 30.6%)" stroke-width="1.5"></path><path d="M1296.97 -93.88L1280.69 100.22" stroke="hsl(220.20000000000005, 68.3%, 30.6%)" stroke-width="1.5"></path><path d="M1296.97 -93.88L1150.23 58.21" stroke="hsl(220.20000000000005, 68.3%, 30.6%)" stroke-width="1.5"></path><path d="M1280.69 100.22L1280.69 100.22" stroke="hsl(220.20000000000005, 68.3%, 30.6%)" stroke-width="1.5"></path><path d="M1280.69 100.22L1396.07 68.6" stroke="hsl(220.20000000000005, 68.3%, 30.6%)" stroke-width="1.5"></path><path d="M1280.69 100.22L1298.77 241.65" stroke="hsl(220.20000000000005, 68.3%, 30.6%)" stroke-width="1.5"></path><path d="M1298.77 241.65L1298.77 241.65" stroke="hsl(220.20000000000005, 68.3%, 30.6%)" stroke-width="1.5"></path><path d="M1273.85 526.85L1273.85 526.85" stroke="hsl(220.20000000000005, 68.3%, 30.6%)" stroke-width="1.5"></path><path d="M1411.51 -110.64L1411.51 -110.64" stroke="hsl(220.20000000000005, 68.3%, 30.6%)" stroke-width="1.5"></path><path d="M1411.51 -110.64L1396.07 68.6" stroke="hsl(220.20000000000005, 68.3%, 30.6%)" stroke-width="1.5"></path><path d="M1411.51 -110.64L1280.69 100.22" stroke="hsl(220.20000000000005, 68.3%, 30.6%)" stroke-width="1.5"></path><path d="M1411.51 -110.64L1150.23 58.21" stroke="hsl(220.20000000000005, 68.3%, 30.6%)" stroke-width="1.5"></path><path d="M1396.07 68.6L1396.07 68.6" stroke="hsl(220.20000000000005, 68.3%, 30.6%)" stroke-width="1.5"></path><path d="M1396.07 68.6L1298.77 241.65" stroke="hsl(220.20000000000005, 68.3%, 30.6%)" stroke-width="1.5"></path><path d="M1396.07 68.6L1150.23 58.21" stroke="hsl(220.20000000000005, 68.3%, 30.6%)" stroke-width="1.5"></path><path d="M1459.55 340.4L1459.55 340.4" stroke="hsl(220.20000000000005, 68.3%, 30.6%)" stroke-width="1.5"></path><path d="M1459.55 340.4L1557.17 361.21" stroke="hsl(220.20000000000005, 68.3%, 30.6%)" stroke-width="1.5"></path><path d="M1459.55 340.4L1451.04 525.53" stroke="hsl(220.20000000000005, 68.3%, 30.6%)" stroke-width="1.5"></path><path d="M1459.55 340.4L1298.77 241.65" stroke="hsl(220.20000000000005, 68.3%, 30.6%)" stroke-width="1.5"></path><path d="M1451.04 525.53L1451.04 525.53" stroke="hsl(220.20000000000005, 68.3%, 30.6%)" stroke-width="1.5"></path><path d="M1451.04 525.53L1405.65 661.3" stroke="hsl(220.20000000000005, 68.3%, 30.6%)" stroke-width="1.5"></path><path d="M1451.04 525.53L1273.85 526.85" stroke="hsl(220.20000000000005, 68.3%, 30.6%)" stroke-width="1.5"></path><path d="M1405.65 661.3L1405.65 661.3" stroke="hsl(220.20000000000005, 68.3%, 30.6%)" stroke-width="1.5"></path><path d="M1557.17 361.21L1557.17 361.21" stroke="hsl(220.20000000000005, 68.3%, 30.6%)" stroke-width="1.5"></path><circle r="25" cx="379.22" cy="492.19" fill="url(#SvgjsRadialGradient1013)"></circle><circle r="25" cx="826.57" cy="674.13" fill="url(#SvgjsRadialGradient1013)"></circle><circle r="25" cx="1154.01" cy="499.75" fill="url(#SvgjsRadialGradient1013)"></circle><circle r="25" cx="1295.92" cy="357.2" fill="url(#SvgjsRadialGradient1013)"></circle><circle r="25" cx="1273.77" cy="641.78" fill="url(#SvgjsRadialGradient1013)"></circle><circle r="25" cx="1580.01" cy="-95.01" fill="url(#SvgjsRadialGradient1013)"></circle><circle r="25" cx="1582.3" cy="196.04" fill="url(#SvgjsRadialGradient1013)"></circle><circle r="25" cx="1570.64" cy="502.2" fill="url(#SvgjsRadialGradient1013)"></circle><circle r="25" cx="1554.02" cy="670.16" fill="url(#SvgjsRadialGradient1013)"></circle><circle r="5" cx="-106.12" cy="526.78" fill="#8997b2"></circle><circle r="5" cx="-64.05" cy="665.99" fill="#8997b2"></circle><circle r="5" cx="73.41" cy="551.67" fill="#8997b2"></circle><circle r="5" cx="37.71" cy="690.27" fill="#8997b2"></circle><circle r="5" cx="231.76" cy="517.88" fill="#8997b2"></circle><circle r="5" cx="229.09" cy="674.51" fill="#8997b2"></circle><circle r="5" cx="384.22" cy="703.19" fill="#8997b2"></circle><circle r="5" cx="551.16" cy="406.05" fill="#8997b2"></circle><circle r="5" cx="539.31" cy="502.33" fill="#8997b2"></circle><circle r="5" cx="503.24" cy="643.67" fill="#8997b2"></circle><circle r="5" cx="699.79" cy="357.48" fill="#8997b2"></circle><circle r="5" cx="662.64" cy="542.89" fill="#8997b2"></circle><circle r="5" cx="821.56" cy="372.06" fill="#8997b2"></circle><circle r="5" cx="803.38" cy="511.52" fill="#8997b2"></circle><circle r="5" cx="945.73" cy="345.57" fill="#8997b2"></circle><circle r="5" cx="1011.08" cy="557.11" fill="#8997b2"></circle><circle r="5" cx="939.85" cy="640.16" fill="#8997b2"></circle><circle r="5" cx="1150.23" cy="58.21" fill="#8997b2"></circle><circle r="5" cx="1147.81" cy="243.92" fill="#8997b2"></circle><circle r="5" cx="1136.52" cy="388.23" fill="#8997b2"></circle><circle r="5" cx="1296.97" cy="-93.88" fill="#8997b2"></circle><circle r="5" cx="1280.69" cy="100.22" fill="#8997b2"></circle><circle r="5" cx="1298.77" cy="241.65" fill="#8997b2"></circle><circle r="5" cx="1273.85" cy="526.85" fill="#8997b2"></circle><circle r="5" cx="1411.51" cy="-110.64" fill="#8997b2"></circle><circle r="5" cx="1396.07" cy="68.6" fill="#8997b2"></circle><circle r="5" cx="1459.55" cy="340.4" fill="#8997b2"></circle><circle r="5" cx="1451.04" cy="525.53" fill="#8997b2"></circle><circle r="5" cx="1405.65" cy="661.3" fill="#8997b2"></circle><circle r="5" cx="1557.17" cy="361.21" fill="#8997b2"></circle></g><defs><mask id="SvgjsMask1012"><rect width="1440" height="560" fill="#ffffff"></rect></mask><radialGradient id="SvgjsRadialGradient1013"><stop stop-color="#ffffff" offset="0.1"></stop><stop stop-color="rgba(19, 46, 101, 1)" offset="0.2"></stop><stop stop-color="rgba(19, 46, 101, 0)" offset="1"></stop></radialGradient></defs></svg>