<svg xmlns="http://www.w3.org/2000/svg" version="1.1" xmlns:xlink="http://www.w3.org/1999/xlink" xmlns:svgjs="http://svgjs.com/svgjs" width="1440" height="560" preserveAspectRatio="none" viewBox="0 0 1440 560"><g mask="url(&quot;#SvgjsMask1000&quot;)" fill="none"><rect width="1440" height="560" x="0" y="0" fill="#0e2a47"></rect><path d="M0,485.185C92.42,480.5,184.002,457.31,259.559,403.882C333.23,351.787,376.016,270.827,416.894,190.389C459.4,106.747,487.407,20.67,501.446,-72.097C520.414,-197.43,602.514,-354.768,512.976,-444.496C421.026,-536.641,260.51,-441.375,130.361,-443.97C40.217,-445.767,-44.507,-465.496,-134.305,-457.402C-244.186,-447.498,-368.518,-463.843,-451.813,-391.498C-536.758,-317.72,-558.404,-193.71,-567.067,-81.532C-575.37,25.989,-552.771,134.33,-499.667,228.19C-449.203,317.383,-368.171,384.21,-277.039,431.082C-191.637,475.007,-95.913,490.047,0,485.185" fill="#0b2239"></path><path d="M1440 1234.842C1562.669 1255.867 1669.398 1143.867 1761.2730000000001 1059.91 1842.629 985.565 1883.79 883.781 1932.403 784.873 1982.528 682.887 2069.383 584.271 2050.087 472.283 2030.835 360.549 1922.219 290.078 1834.723 217.971 1759.134 155.676 1669.35 123.79500000000002 1579.605 84.548 1475.663 39.091999999999985 1379.902-36.63199999999995 1266.623-30.46799999999996 1142-23.687000000000012 1011.898 23.932999999999993 931.97 119.78899999999999 852.417 215.195 863.46 351.606 845.539 474.529 827.58 597.715 756.067 737.64 826.978 839.9580000000001 899.74 944.946 1075.096 891.5319999999999 1182.482 960.706 1290.06 1030.003 1313.874 1213.2240000000002 1440 1234.842" fill="#113255"></path></g><defs><mask id="SvgjsMask1000"><rect width="1440" height="560" fill="#ffffff"></rect></mask></defs></svg>