<svg xmlns="http://www.w3.org/2000/svg" version="1.1" xmlns:xlink="http://www.w3.org/1999/xlink" xmlns:svgjs="http://svgjs.com/svgjs" width="1440" height="560" preserveAspectRatio="none" viewBox="0 0 1440 560"><g mask="url(&quot;#SvgjsMask1002&quot;)" fill="none"><circle r="8.185" cx="113.025" cy="212.415" filter="url(#SvgjsFilter1003)" fill="rgba(51, 121, 194, 0.58)"></circle><circle r="6.44" cx="358.79" cy="501.85" filter="url(#SvgjsFilter1003)" fill="rgba(51, 121, 194, 0.58)"></circle><circle r="8.83" cx="917.9300000000001" cy="76.03999999999999" filter="url(#SvgjsFilter1003)" fill="rgba(51, 121, 194, 0.58)"></circle><circle r="6.39" cx="727.42" cy="106" filter="url(#SvgjsFilter1003)" fill="rgba(51, 121, 194, 0.58)"></circle><circle r="9.24" cx="41.7" cy="33.52" filter="url(#SvgjsFilter1003)" fill="rgba(51, 121, 194, 0.58)"></circle><circle r="6.845" cx="271.045" cy="126.765" filter="url(#SvgjsFilter1003)" fill="rgba(51, 121, 194, 0.58)"></circle><circle r="4.68" cx="563.12" cy="181.37" filter="url(#SvgjsFilter1003)" fill="rgba(51, 121, 194, 0.58)"></circle><circle r="5.08" cx="943.2" cy="368.59999999999997" filter="url(#SvgjsFilter1003)" fill="rgba(51, 121, 194, 0.58)"></circle><circle r="5.62" cx="610.28" cy="182.65" filter="url(#SvgjsFilter1003)" fill="rgba(51, 121, 194, 0.58)"></circle><circle r="8.51" cx="487.15999999999997" cy="296.65" filter="url(#SvgjsFilter1003)" fill="rgba(51, 121, 194, 0.58)"></circle><circle r="5.455" cx="897.8050000000001" cy="146.835" filter="url(#SvgjsFilter1003)" fill="rgba(51, 121, 194, 0.58)"></circle><circle r="6.21" cx="212.28" cy="48.06" filter="url(#SvgjsFilter1003)" fill="rgba(51, 121, 194, 0.58)"></circle><circle r="8.07" cx="290.19" cy="560.95" filter="url(#SvgjsFilter1003)" fill="rgba(51, 121, 194, 0.58)"></circle><circle r="5.805" cx="480.645" cy="416.96500000000003" filter="url(#SvgjsFilter1003)" fill="rgba(51, 121, 194, 0.58)"></circle><circle r="7.06" cx="1382.54" cy="312.09" filter="url(#SvgjsFilter1003)" fill="rgba(51, 121, 194, 0.58)"></circle><circle r="8" cx="239.13" cy="209.61" filter="url(#SvgjsFilter1003)" fill="rgba(51, 121, 194, 0.58)"></circle><circle r="5.135" cx="561.505" cy="356.005" filter="url(#SvgjsFilter1003)" fill="rgba(51, 121, 194, 0.58)"></circle><circle r="8.905" cx="395.815" cy="348.125" filter="url(#SvgjsFilter1003)" fill="rgba(51, 121, 194, 0.58)"></circle><circle r="6.56" cx="130.85999999999999" cy="398.08" filter="url(#SvgjsFilter1003)" fill="rgba(51, 121, 194, 0.58)"></circle><circle r="5.585" cx="1019.765" cy="31.915" filter="url(#SvgjsFilter1003)" fill="rgba(51, 121, 194, 0.58)"></circle><path d="M263.4 64.8L291.3 82.9 297.2 111.9 269.1 102.6 254.5 72.8C254.5 72.8 254.2 72.5 254.2 72.5 253.7 71.9 252.5 71.8 251.7 72.1 250.5 72.6 250.1 74 250.9 74.9L263.8 100.9 250.2 96.4 244.4 85C244.4 85 244.1 84.7 244.1 84.7 243.6 84.1 242.5 84 241.6 84.2 240.4 84.7 240.1 86.1 240.9 87L244.6 94.9 234.6 91.5C233.8 91.1 232.3 91.9 232 92.7 231.4 93.8 232.4 95 233.3 95.3L243.3 98.8 235.4 102.6C234.2 103.1 233.9 104.4 234.7 105.3 235.2 106.5 236.6 106.9 237.4 106.1L248.8 100.2 262.2 105 236.2 117.9C235 118.4 234.6 119.8 235.4 120.7 235.9 121.9 237.3 122.2 238.2 121.4L268 106.8 296.1 116.1 273.6 136 240.3 134C239.2 133.9 238.3 134.7 238.2 135.9 238.2 137 238.9 137.9 240.1 138L269.4 139.7 258.7 149.3 246.2 148.5C245.1 148.5 244.2 149.3 244.2 150.4 244.1 151.5 244.9 152.4 246 152.5L254.5 153 246.1 160.4C244.9 160.9 245.1 162.4 245.9 163.3 246.7 164.2 247.9 164.2 248.8 163.4L256.5 156.5 256 165C256 166.1 256.8 167 257.9 167.1S259.9 166.4 260 165.2L260.7 152.8 271.5 143.2 269.7 172.6C269.7 173.7 270.5 174.6 271.6 174.7 272.7 174.8 273.6 174 273.7 172.8L275.7 139.5 297.8 119.9 303.7 148.9 286 175.8C285.4 176.9 285.8 178.1 286.6 179 287.7 179.6 288.9 179.1 289.8 178.3L305.7 154.1 308.5 168.1 301.4 178.8C300.8 179.8 301.3 181 302.1 181.9 303.2 182.5 304.3 182 304.9 181.5L309.6 174.1 311.8 184.5C312.1 185.3 313.1 186.5 314.3 186 315.4 185.5 316.3 184.7 315.8 183.6L313.6 173.2 321 177.9C322.1 178.6 323.3 178.1 323.8 177.5 324.2 176.7 324.3 175.6 323.7 175 323.7 175 323.5 174.7 323.5 174.7L312.8 167.5 310 153.5 334.3 169.4C335.4 170 336.5 169.5 337.1 169 337.4 168.2 337.5 167 337 166.4 337 166.4 336.7 166.1 336.7 166.1L308.9 148 303 119.1 331 128.4 345.7 158.2C346.2 159.3 347.6 159.7 348.5 158.9 349.6 158.4 350 157 349.2 156.1L336.3 130.1 349.9 134.6 355.8 146C356.3 147.2 357.7 147.5 358.6 146.7 359.7 146.3 360.1 144.9 359.3 144L355.5 136.1 365.5 139.5C366.3 139.8 367.8 139.1 368.1 138.3 368.5 137.4 368.2 136.6 367.7 136 367.4 135.7 367.2 135.4 366.6 135.3L356.6 131.9 364.5 128.1C365.7 127.6 366 126.2 365.2 125.3 365.2 125.3 365 125 365 125 364.4 124.4 363.3 124.4 362.4 124.6L351 130.4 337.4 125.9 363.4 113C364.6 112.5 364.9 111.1 364.1 110.2 364.1 110.2 363.9 109.9 363.9 109.9 363.3 109.3 362.2 109.3 361.4 109.5L331.6 124.2 303.5 114.8 325.7 95.2 359 97.2C360.1 97.3 361 96.5 361.1 95.3 361.1 94.2 360.3 93.3 359.2 93.2L330.1 91.2 340.9 81.7 353.3 82.4C354.5 82.5 355.4 81.7 355.4 80.5S354.7 78.5 353.6 78.4L345.1 77.9 352.9 71C353.8 70.2 353.8 69.1 353.1 68.2 352.3 67.3 351.1 67.3 350.2 68L342.4 74.9 343 66.5C343 65.9 343 65.3 342.5 64.8S341.4 64.1 340.8 64.1C339.7 64 338.8 64.8 338.7 65.9L338 78.4 327.2 87.9 329 58.6C329 58 329 57.4 328.5 56.8 328.2 56.5 327.4 56.2 326.9 56.2 325.7 56.1 324.8 56.9 324.8 58L322.8 91.3 300.6 111 294.7 82 312.8 54.2C313.1 53.4 313.2 52.2 312.7 51.6 312.7 51.6 312.4 51.3 312.4 51.3 311.3 50.7 310.1 51.2 309.6 51.7L293.6 76 290.8 61.9 298 51.3C298.3 50.5 298.4 49.4 297.8 48.8 297.8 48.8 297.6 48.5 297.6 48.5 296.5 47.8 295.3 48.3 294.7 48.9L290 56.2 287.8 45.9C287.5 45.6 287.6 45 287.3 44.7 286.8 44.1 285.9 43.8 285.1 44 283.9 44.5 283 45.3 283.5 46.5L285.7 56.8 278.4 52.1C277.3 51.5 276.1 52 275.5 52.5 274.9 53.6 275.4 54.8 275.9 55.4L286.5 62.5 289.4 76.6 265.1 60.7C264 60.1 262.8 60.6 262.2 61.1 262.1 62.8 262.3 64.2 263.4 64.8Z" fill="rgba(51, 121, 194, 0.58)"></path><path d="M1125.9 402.5L1169.7 432.3 1172.7 446.6 1148.1 468 1133.9 463.4 1110.9 415.5C1110.5 415 1110.5 415 1110.1 414.6 1109.3 413.6 1107.9 413.1 1106.1 413.8 1104.6 415.1 1104.1 416.4 1104.9 418.3L1125.1 460.1 1103.4 452.7 1094.2 434.3C1094.2 434.3 1093.8 433.8 1093.8 433.8 1093 432.9 1091.6 432.3 1089.8 433.1 1088.4 433.5 1087.8 435.7 1088.5 437.6L1094 449.7 1078.1 444.1C1076.8 443.5 1074.9 444.3 1073.9 446.1S1074.5 449.7 1076.3 450.8L1091.8 455.9 1080 461.9C1078.2 462.7 1077.6 464.9 1078.3 466.8 1079.2 467.7 1080.9 468.8 1082.8 468L1101.1 458.8 1123.3 466.7 1081.5 487C1079.6 487.7 1079 490 1079.3 491.4 1080.6 492.8 1082.3 493.8 1084.2 493.1L1131.7 469.6 1146.3 474.7 1152.3 506 1140.7 516 1087.8 512.8C1086 512.7 1084.6 513.9 1084.4 515.8S1085.6 519 1087.4 519.1L1133.9 521.9 1116.1 537.5 1096.2 536.1C1094.4 536 1092.9 537.2 1092.3 539.4S1093.5 542.7 1095.3 542.8L1109.3 543.3 1096.3 554.7C1094.8 555.9 1095.1 558.2 1096.4 559.7 1097.6 561.1 1099.4 561.3 1100.9 560L1113.9 548.7 1113 562.2C1112.4 564.4 1113.6 565.9 1115.9 565.6 1117.7 565.7 1119.2 564.4 1119.3 562.6L1120.7 542.8 1138.5 527.2 1134.8 573.7C1134.7 575.5 1136.4 577.4 1138.2 577.6S1141.5 576.4 1141.6 574.6L1145.3 521.4 1156.9 511.3 1187.4 522 1190 536.7 1160.2 580.5C1159.2 582.2 1160 584.1 1161.2 585.5 1163 586.6 1164.9 585.8 1166.3 584.5L1192.1 545.9 1196.5 568.5 1184.8 585.4C1183.8 587.1 1184.6 589 1185.8 590.4 1187.2 591 1189.5 590.7 1190.5 588.9L1198 578.1 1201.4 594.7C1201.8 596.1 1203.5 597.1 1205.3 597.2 1207.2 596.4 1208.2 594.7 1207.9 593.3L1204.5 576.7 1216.2 584.4C1217.5 584.9 1219.8 584.6 1220.4 583.3 1221.8 582 1221.5 580.7 1220.2 579.2 1220.2 579.2 1219.8 578.7 1219.8 578.7L1202.9 567.1 1198.6 544.6 1237.1 570.4C1238.9 571.4 1240.7 571.6 1241.7 569.8 1242.8 568.1 1242.4 566.7 1241.6 565.7 1241.1 565.2 1241.1 565.2 1241.1 565.2L1196.5 535.4 1193.9 520.7 1218.5 499.2 1232.2 504.3 1256.1 552.2C1256.5 553.6 1258.7 554.2 1260.1 553.9 1261.9 553.1 1262.6 550.9 1261.8 549L1241.6 507.2 1263.3 514.6 1272.4 532.9C1273.2 534.8 1274.9 535.8 1276.4 534.6 1278.3 533.8 1278.9 531.6 1278.5 530.2L1272.1 518 1288 523.6C1289.8 523.7 1291.7 522.9 1292.7 521.2 1292.8 520.3 1292.5 518.9 1291.6 518 1291.2 517.5 1291.2 517.5 1290.3 517.4L1274.4 511.8 1286.6 505.4C1288.5 504.6 1288.6 502.8 1288.2 501.4 1287.8 500.9 1287.8 500.9 1287.4 500.4 1286.6 499.5 1285.2 498.9 1283.8 499.3L1265.5 508.4 1243.8 501 1285.6 480.8C1287 479.5 1288.1 477.8 1286.8 476.3 1286.9 475.4 1286.9 475.4 1286.4 474.9 1285.6 474 1283.8 473.9 1282.4 474.2L1234.5 498.1 1220.8 493 1214.4 461.3 1225.5 451.6 1278.7 455.4C1280.5 455.5 1282.5 453.8 1282.6 452S1281 448.3 1279.2 448.1L1232.7 445.3 1250.1 430.2 1270.4 431.2C1272.3 431.3 1273.7 430.1 1273.8 428.3 1274 426.4 1272.7 425 1270.9 424.9L1257.3 423.9 1270.4 412.6C1271.3 411.7 1272 409.5 1270.7 408.1 1269.4 406.6 1266.7 406.4 1265.8 407.3L1252.7 418.6 1253.7 405.1C1253.7 404.2 1253.8 403.3 1253.4 402.8 1252.5 401.8 1251.6 401.8 1250.7 401.7 1248.9 401.6 1247.5 402.8 1247.3 404.6L1245.5 424.9 1228.1 440 1231.8 393.6C1231.9 392.7 1231.4 392.2 1230.6 391.2 1230.2 390.7 1229.8 390.2 1228.8 390.2 1227 390.1 1225.1 391.7 1225 393.5L1220.8 446.3 1209.7 456 1179.6 445.7 1176.1 431 1206.4 386.8C1206.9 385.5 1207.1 383.7 1206.2 382.7 1205.8 382.2 1205.8 382.2 1205.3 382.6 1204.1 381.2 1201.8 381.5 1200.8 383.2L1174.9 421.8 1170.2 398.8 1181.8 381.9C1182.3 380.6 1182 379.2 1181.1 378.2 1181.1 378.2 1180.7 377.8 1180.7 377.8 1179.5 376.3 1177.2 376.6 1176.1 378.3L1168.5 390.1 1165.1 373.5C1165.2 372.6 1164.8 372.1 1164.4 371.6 1163.5 370.7 1162.2 370.1 1161.7 370.5 1159.4 370.8 1158.4 372.6 1158.3 374.4L1161.7 390.9 1150.8 383.4C1149.1 382.4 1146.8 382.6 1145.8 384.4 1145.2 385.7 1145.5 388 1146.9 388.5L1163.7 400.2 1168.1 422.7 1129.5 396.9C1127.7 395.8 1125.9 396.6 1124.4 397.9 1123.9 399.2 1124.2 401.5 1125.9 402.5ZM1155.6 470.8L1174.5 454.4 1177.4 451.9 1180.9 453.1 1203.9 461 1207.9 462.7 1208.6 466.3 1213.2 490.3 1213.9 493.9 1211 496.5 1192.2 512.8 1189.3 515.4 1185.7 514.2 1162.7 506.2 1159.1 505.1 1158.1 500.9 1153.4 477 1152.7 473.3 1155.6 470.8Z" fill="rgba(51, 121, 194, 0.58)"></path><path d="M1101.4 227.3L1061.7 224.2 1038.9 197 1073.8 190.8 1106.3 213.7C1106.3 213.7 1106.8 213.9 1106.8 213.9 1107.7 214.2 1108.9 213.7 1109.7 212.9 1110.6 211.7 1110.2 210 1108.9 209.6L1080.4 189.6 1097.3 186.5 1110 195.2C1110 195.2 1110.4 195.3 1110.4 195.3 1111.4 195.7 1112.6 195.1 1113.4 194.3 1114.3 193.1 1113.9 191.5 1112.5 191L1104 184.8 1116.5 182.7C1117.6 182.6 1118.7 181 1118.6 179.9 1118.6 178.4 1116.8 177.7 1115.8 177.8L1103.2 180 1109.4 171.5C1110.3 170.3 1109.9 168.6 1108.6 168.1 1107.4 167.2 1105.7 167.6 1105.2 168.9L1096.5 181.6 1079.8 184.2 1099.8 155.7C1100.7 154.5 1100.3 152.9 1098.9 152.4 1097.7 151.4 1096.1 151.8 1095.6 153.2L1072.6 185.7 1037.7 192 1049.9 158.1 1086.2 141.1C1087.4 140.5 1087.9 139.2 1087.3 138 1086.7 136.7 1085.4 136.2 1084.1 136.8L1052.2 151.8 1058.1 135.5 1071.6 129.2C1072.8 128.6 1073.3 127.3 1072.7 126 1072.2 124.8 1070.8 124.3 1069.6 124.9L1060.4 129.2 1064.9 116.6C1065.9 115.4 1064.8 114 1063.5 113.5 1062.1 113 1060.9 113.6 1060.4 114.9L1056.2 126.7 1051.8 117.5C1051.3 116.2 1049.9 115.7 1048.7 116.3S1047 118.3 1047.5 119.5L1053.9 133 1048 149.3 1033 117.3C1032.4 116.1 1031.1 115.6 1029.9 116.1 1028.6 116.7 1028.1 118.1 1028.7 119.3L1045.7 155.6 1033.6 189 1010.8 161.8 1014 123.2C1014.1 121.7 1012.9 120.7 1011.5 120.2 1010 120.2 1009.1 121.4 1008.6 122.7L1005.7 157.4 994.7 144.3 996.1 129C996.2 127.4 995 126.5 993.6 126 992.1 126 991.2 127.2 990.8 128.1L990.1 138.5 981.9 128.9C981.1 128.1 979.3 127.5 978.4 128.7 977.4 129.8 976.9 131.2 978.1 132.1L986.4 141.8 975.9 141C974.4 141 973.5 142.2 973.1 143.1 973.3 144.2 973.8 145.4 974.7 145.7 974.7 145.7 975.2 145.9 975.2 145.9L990.5 147.3 1001.6 160.5 966.9 157.7C965.3 157.6 964.4 158.8 964.1 159.7 964.2 160.8 964.8 162 965.7 162.3 965.7 162.3 966.1 162.5 966.1 162.5L1005.8 165.6 1028.7 192.8 993.7 199 961.2 176C960 175.1 958.4 175.5 957.9 176.9 956.9 178.1 957.3 179.7 958.7 180.2L987.2 200.2 970.3 203.3 957.6 194.6C956.4 193.7 954.7 194.1 954.2 195.5 953.3 196.6 953.7 198.3 955 198.8L963.5 205 951 207.1C950 207.2 948.9 208.8 949 209.9 949.1 211 949.8 211.7 950.7 212.1 951.2 212.2 951.6 212.4 952.3 212.1L964.8 210 958.6 218.5C957.7 219.7 958.1 221.4 959.5 221.9 959.5 221.9 959.9 222 959.9 222 960.8 222.3 962 221.8 962.8 221L971.5 208.3 988.4 205.3 968.4 233.8C967.5 235 967.9 236.6 969.2 237.1 969.2 237.1 969.7 237.3 969.7 237.3 970.6 237.6 971.8 237.1 972.6 236.3L995.6 203.8 1030.5 197.5 1018.4 230.9 982.2 247.9C980.9 248.5 980.5 249.9 981 251.1 981.6 252.3 983 252.8 984.2 252.2L1016 237.7 1010.1 254 996.6 260.3C995.4 260.9 994.9 262.2 995.4 263.5S997.4 265.2 998.6 264.6L1007.8 260.3 1003.6 272C1003.1 273.4 1003.7 274.6 1005 275.1 1006.4 275.6 1007.6 275 1008.1 273.7L1012.3 261.9 1016.7 271.1C1016.9 271.8 1017.2 272.4 1018.1 272.7S1019.7 272.7 1020.3 272.4C1021.5 271.9 1022 270.5 1021.4 269.3L1015.1 255.8 1021 239.5 1035.9 271.5C1036.2 272.1 1036.5 272.7 1037.4 273 1037.9 273.2 1038.9 273.1 1039.5 272.8 1040.8 272.2 1041.3 270.9 1040.7 269.6L1023.7 233.4 1035.8 200 1058.6 227.1 1055.5 266.8C1055.6 267.9 1056.2 269.1 1057.1 269.4 1057.1 269.4 1057.5 269.6 1057.5 269.6 1059.1 269.6 1060 268.4 1060.3 267.5L1063.2 232.8 1074.2 246 1072.8 261.3C1072.9 262.4 1073.5 263.6 1074.4 264 1074.4 264 1074.8 264.1 1074.8 264.1 1076.4 264.2 1077.3 263 1077.6 262.1L1078.3 251.6 1086.6 261.2C1087.1 261.4 1087.3 262 1087.8 262.2 1088.7 262.5 1089.8 262.4 1090.5 261.6 1091.5 260.4 1092 259.1 1090.8 258.1L1082.5 248.5 1093 249.2C1094.5 249.3 1095.4 248.1 1095.8 247.2 1095.8 245.7 1094.6 244.7 1093.7 244.4L1078.4 242.9 1067.4 229.8 1102.1 232.6C1103.6 232.7 1104.5 231.5 1104.8 230.6 1104 228.7 1103 227.3 1101.4 227.3Z" fill="rgba(51, 121, 194, 0.58)"></path><path d="M727.4 430.7L718.3 448.1 711.6 438.3C711 437.2 709.3 436.8 707.6 437.4 706.6 438.6 706.1 440.3 707.3 441.4L715.3 453.8 708.7 467.6 692.2 441.6C691 440.6 689.3 440.1 688.2 440.7 686.6 441.9 686.1 443.6 687.3 444.7L705.7 473.4 695 494.2 683.1 470.2 673.8 495.4 660.9 475.9 676.1 445.3C676.6 445.3 676.6 444.7 676.6 444.2 676.5 443 675.9 442 674.8 441.5 673.6 441 672 441.6 670.9 442.8L657.3 470.5 649.3 457.4 655.8 444.2C656.4 443.6 656.3 443 656.3 442.5 656.3 441.9 655.7 440.8 654.5 440.3 653.4 439.8 651.7 440.5 651.2 441.6L645.6 452 634.6 435.8C634 434.2 632.3 434.3 630.7 434.9 629.6 435.5 629.1 437.2 630.3 438.8L640.7 455.1 629 455.7C627.3 455.8 626.3 457.6 626.3 458.7 626.4 460.4 627.6 461.4 629.3 461.3L644.4 460.5 652.4 473.5 622.2 475.2C620.5 475.3 619.5 476.5 619.6 478.1 619.6 479.3 620.8 480.9 622.5 480.8L656.1 478.9 668.9 498.4 642.5 497.1 659.3 517.5 635.8 518.7 617.4 490.6C616.2 489 614.5 489.1 613.5 489.7 612.4 490.3 611.9 492 612.6 493.7L629.6 519.1 614.6 519.9 606 507.5C605.4 505.8 603.7 505.4 602 506.6 601 507.2 600.5 508.9 601.7 510.5L607.8 520.3 588.3 521.3C586.6 521.4 585.5 522.6 585.6 524.3S586.9 527 588.6 526.9L608.1 525.9 603.1 536.2C602.1 538 602.7 539.6 603.9 540.1 605.6 541.1 607.3 540.5 607.7 538.8L614.9 525.5 630 524.7 615.7 551.8C615.3 553.5 615.9 555.2 617.1 555.7 618.8 556.7 620.5 556 620.9 554.3L636.1 524.3 659.6 523.1 645.1 545.2 671.2 540.9 660.6 561.7 627 563.5C625.4 563.6 624.3 565.4 624.4 566.5 624.5 568.2 625.7 569.2 627.3 569.1L658.1 567.4 651 581.3 635.9 582.1C634.2 582.2 633.2 583.4 633.3 585.1 633.3 586.2 634.5 587.8 636.2 587.7L647.9 587.1 639.4 604.4C638.3 606.1 639 607.7 640.7 608.2 641.8 608.7 643.5 608.6 644 606.9L653.1 589.6 659.8 599.3C660.5 600.4 662.2 600.9 663.2 600.2 664.3 599.6 664.8 598.5 664.8 597.9 664.8 597.4 664.7 596.8 664.2 596.3L656.2 583.8 662.7 570 679.3 596C680.5 597.1 682.2 597.5 683.3 596.9 684.3 596.3 684.8 595.1 684.8 594 684.8 593.5 684.8 593.5 684.2 592.9L665.8 564.2 676.4 543.4 688.4 567.5 697.7 542.3 710.5 561.8 695.3 592.3C694.8 593.5 694.9 595.2 696.7 596.2 697.8 596.7 699.5 596 700.5 594.8L714.2 567.2 722.2 580.2 715.6 593.5C714.5 594.6 715.2 596.3 716.9 597.3 718.1 597.8 719.7 597.2 720.8 596L725.8 585.6 736.8 601.8C737.5 603.5 739.1 603.4 740.8 602.7 741.3 602.1 741.8 601 741.8 600.4 741.7 599.9 741.7 599.3 741.1 598.8L730.7 582.5 742.4 581.9C744.1 581.8 745.1 580.1 745.1 578.9L745.1 578.9C745 577.3 743.8 576.2 742.1 576.3L727 577.1 719 564.1 749.2 562.5C750.9 562.4 752 561.2 751.9 559.5S750.6 556.8 748.9 556.9L715.4 558.7 702.5 539.2 729 540.6 712.2 520.2 735.6 518.9 754 547.1C755.2 548.7 756.9 548.6 758 548 759.1 547.3 759.5 545.6 758.9 544L742.3 518.5 756.9 517.7 765.4 530.2C766.1 531.8 767.8 532.3 769.4 531.1 770.5 530.5 770.9 528.7 770.3 527.1L763.6 517.4 783.2 516.3C784.8 516.2 785.9 515 785.8 513.3S784.5 510.6 782.9 510.7L763.3 511.8 768.3 501.4C768.9 500.8 768.8 500.3 768.8 499.7 768.7 498.6 768.1 498 767.6 497.5 765.8 496.5 764.2 497.1 763.7 498.9L756.6 512.1 741.5 513 755.7 485.8C755.7 485.3 755.6 484.7 755.6 484.2 755.5 483 755 482.5 754.4 482 752.6 481 751 481.6 750.5 483.3L735.3 513.3 711.8 514.6 726.3 492.5 700.2 496.7 710.9 475.9 744.4 474.1C746.1 474 747.1 472.3 747 471.2 747 469.5 745.8 468.4 744.1 468.5L713.9 470.2 720.4 456.4 735.5 455.5C737.2 455.4 738.3 454.3 738.2 452.6S736.9 449.8 735.2 449.9L723.5 450.6 732.1 433.3C732.6 432.7 732.6 432.1 732.5 431.6 732.5 431 731.9 429.9 730.7 429.4 729.6 428.9 727.9 429 727.4 430.7ZM715 499.8L703.1 517.9 716.9 534.5 694.9 533.5 687.6 553.5 677.6 534.4 656.5 537.8 668.4 519.8 654.6 503.1 675.9 504.2 683.8 484.2 693.3 503.3 715 499.8Z" fill="rgba(51, 121, 194, 0.58)"></path><path d="M1268.4 102.8L1279.4 100.5 1277.5 107C1277.3 107.7 1277.7 108.6 1278.6 109.1 1279.5 109.1 1280.4 108.7 1280.4 107.8L1283 99.7 1291.5 97.6 1286.1 114.4C1286 115.3 1286.5 116.2 1287.1 116.4 1288.3 116.7 1289.2 116.3 1289.2 115.4L1295.1 96.8 1308.1 93.9 1301.9 107.9 1316.4 102.8 1312.5 115.6 1293.6 120.1C1293.3 119.8 1293.1 120.1 1292.9 120.3 1292.4 120.7 1292.2 121.4 1292.4 122.1 1292.6 122.7 1293.4 123.2 1294.3 123.3L1311.5 119.2 1308.7 127.4 1300.5 129.4C1300 129.4 1299.8 129.6 1299.5 129.8 1299.3 130 1299 130.7 1299.2 131.4 1299.4 132.1 1300.3 132.6 1301 132.4L1307.6 131 1304.5 141.8C1304 142.7 1304.7 143.4 1305.6 143.8 1306.2 144.1 1307.2 143.7 1307.4 142.6L1310.8 132 1315.3 137C1316 137.7 1317.1 137.5 1317.6 137.1 1318.3 136.4 1318.3 135.5 1317.7 134.8L1311.8 128.5 1314.6 120.2 1326.4 132.9C1327 133.6 1327.9 133.6 1328.6 132.9 1329.1 132.5 1329.4 131.4 1328.7 130.7L1315.7 116.6 1319.5 103.8 1328.6 116 1331.4 101.1 1340.6 111 1334.9 129.3C1334.6 130.4 1335.3 131.2 1335.9 131.4 1336.6 131.7 1337.5 131.2 1338 130.4L1342.9 113.6 1348.8 119.9 1346.5 128.2C1346 129.1 1346.4 130 1347.5 130.3 1348.2 130.5 1349.1 130.1 1349.4 129L1351.4 122.7 1359 130.9C1359.7 131.6 1360.6 131.7 1361.3 131S1362 129.4 1361.4 128.7L1353.8 120.5 1360.2 119C1361.3 118.8 1361.8 117.9 1361.6 117.2 1361.4 116.1 1360.5 115.6 1359.6 116L1351.2 117.7 1345.3 111.4 1362.4 107.7C1363.3 107.3 1363.8 106.4 1363.6 105.7 1363.4 104.6 1362.5 104.1 1361.6 104.5L1342.9 108.8 1333.8 98.9 1348.8 97.2 1337.4 87.3 1350.4 84.4 1363.4 98.5C1364.1 99.2 1365.2 99 1365.7 98.6 1366.4 97.9 1366.4 97 1365.8 96.3L1353.8 83.4 1362.5 81.5 1368.4 87.8C1369 88.5 1369.9 88.5 1370.6 87.9 1371.1 87.4 1371.4 86.3 1370.7 85.6L1366.1 80.7 1376.9 78.2C1378 78 1378.5 77.1 1378.1 76.2 1377.9 75.5 1377.2 74.8 1376.3 75.2L1365.4 77.5 1367.2 71C1367.4 70.3 1367 69.4 1366.4 69.2 1365.7 68.9 1365 69.1 1364.8 69.3 1364.5 69.5 1364.3 69.8 1364.3 70.2L1361.7 78.3 1353.3 80.4 1358.6 63.7C1358.7 62.7 1358.3 61.8 1357.6 61.6 1356.9 61.3 1356.2 61.5 1355.8 62 1355.5 62.2 1355.5 62.2 1355.5 62.6L1349.6 81.2 1336.6 84.1 1342.8 70.1 1328.3 75.2 1332.2 62.4 1351.2 57.9C1351.8 57.7 1352.5 57.1 1352.4 55.9 1352.2 55.3 1351.3 54.8 1350.4 54.7L1333.2 58.8 1336 50.6 1344.3 48.6C1345.2 48.7 1345.7 47.8 1345.5 46.6 1345.3 45.9 1344.4 45.5 1343.5 45.4L1337.1 47 1340.2 36.2C1340.7 35.3 1340 34.6 1339.1 34.2 1338.7 34.1 1338 34.3 1337.8 34.6 1337.5 34.8 1337.3 35 1337.3 35.4L1333.9 46 1329.4 41C1328.7 40.3 1327.6 40.5 1327.1 41L1327.1 41C1326.4 41.6 1326.4 42.5 1327 43.2L1332.9 49.5 1330.1 57.8 1318.4 45.1C1317.7 44.4 1316.8 44.4 1316.1 45.1S1315.4 46.6 1316 47.3L1329.1 61.4 1325.2 74.2 1316.1 62 1313.3 76.9 1304.2 67 1309.8 48.7C1310.1 47.6 1309.5 46.9 1308.8 46.6 1308.1 46.3 1307.2 46.8 1306.7 47.7L1301.6 64.2 1295.9 58.1 1298.2 49.8C1298.7 48.9 1298.3 48 1297.2 47.7 1296.5 47.5 1295.6 47.9 1295.1 48.8L1293.3 55.3 1285.7 47.1C1285 46.4 1284.1 46.3 1283.4 47S1282.7 48.6 1283.3 49.3L1290.9 57.5 1284.5 59C1284.1 59 1283.9 59.2 1283.6 59.5 1283.2 59.9 1283.1 60.4 1283.1 60.8 1283.3 61.9 1284.2 62.4 1285.1 62L1293.6 60.3 1299.4 66.6 1282.3 70.3C1282.1 70.5 1281.8 70.7 1281.6 70.9 1281.1 71.4 1281.1 71.8 1281.1 72.3 1281.3 73.4 1282.2 73.9 1283.1 73.5L1301.8 69.2 1311 79.1 1296 80.8 1307.3 90.7 1294.3 93.6 1281.3 79.5C1280.6 78.8 1279.5 79 1279 79.4 1278.3 80.1 1278.3 81 1278.9 81.7L1290.7 94.4 1282.2 96.5 1276.3 90.2C1275.7 89.5 1274.8 89.5 1274.1 90.1S1273.3 91.7 1274 92.4L1278.6 97.3 1267.8 99.9C1267.4 99.8 1267.1 100.1 1266.9 100.3 1266.7 100.5 1266.4 101.2 1266.6 101.8 1266.8 102.5 1267.5 103.2 1268.4 102.8ZM1303.3 83.1L1315.6 81.7 1317.9 69.6 1325.4 79.6 1336.9 75.5 1332.2 86.9 1341.4 94.9 1329.1 96.3 1326.8 108.4 1319.5 98.6 1307.8 102.5 1312.8 91.4 1303.3 83.1Z" fill="rgba(51, 121, 194, 0.58)"></path><path d="M1337.1 472.7L1348.3 471.5 1345.8 477.8C1345.5 478.4 1345.8 479.4 1346.6 480 1347.5 480.1 1348.5 479.8 1348.6 478.9L1352 471.1 1360.6 469.8 1353.6 486C1353.5 486.8 1353.8 487.8 1354.4 488.1 1355.5 488.5 1356.5 488.2 1356.6 487.3L1364.3 469.4 1377.5 467.8 1370 481.1 1384.9 477.4 1379.8 489.8 1360.5 492.4C1360.3 492.1 1360 492.3 1359.8 492.5 1359.3 492.9 1359 493.5 1359.1 494.2 1359.2 494.9 1360.1 495.5 1360.9 495.6L1378.4 493.2 1374.8 501.2 1366.4 502.3C1366 502.3 1365.7 502.5 1365.5 502.6 1365.2 502.8 1364.9 503.5 1365 504.2 1365.2 504.9 1366 505.5 1366.7 505.3L1373.4 504.6 1369.3 515C1368.7 515.9 1369.3 516.6 1370.1 517.2 1370.7 517.5 1371.7 517.2 1372.1 516.1L1376.4 506 1380.5 511.3C1381.1 512.1 1382.2 512 1382.7 511.6 1383.5 511 1383.6 510.2 1383 509.4L1377.8 502.5 1381.4 494.5 1391.9 508.3C1392.5 509.1 1393.4 509.2 1394.1 508.6 1394.6 508.2 1395 507.1 1394.4 506.4L1382.8 491.1 1387.9 478.8 1395.7 491.7 1400 477.2 1408.1 487.9 1400.7 505.6C1400.3 506.7 1400.9 507.5 1401.5 507.8 1402.2 508.1 1403.1 507.8 1403.7 507L1410.3 490.7 1415.5 497.6 1412.3 505.6C1411.8 506.5 1412.1 507.4 1413.2 507.8 1413.8 508.1 1414.8 507.8 1415.2 506.7L1417.8 500.7 1424.6 509.6C1425.2 510.3 1426.1 510.5 1426.8 509.9S1427.7 508.4 1427.1 507.6L1420.4 498.7 1426.9 497.8C1428 497.7 1428.6 496.9 1428.5 496.2 1428.4 495 1427.6 494.5 1426.6 494.8L1418 495.7 1412.8 488.8 1430.2 486.8C1431.2 486.5 1431.7 485.7 1431.6 485 1431.5 483.8 1430.7 483.2 1429.7 483.6L1410.7 486 1402.6 475.3 1417.7 475.1 1407.3 464.1 1420.5 462.4 1432.1 477.7C1432.7 478.5 1433.9 478.4 1434.4 478 1435.1 477.5 1435.3 476.6 1434.7 475.8L1424 461.8 1432.9 460.7 1438.1 467.6C1438.7 468.3 1439.6 468.5 1440.3 467.9 1440.8 467.5 1441.2 466.4 1440.6 465.6L1436.6 460.3 1447.5 458.8C1448.7 458.7 1449.2 457.9 1448.9 457 1448.8 456.2 1448.2 455.5 1447.2 455.8L1436.1 457 1438.6 450.7C1438.9 450.1 1438.6 449.1 1437.9 448.8 1437.3 448.5 1436.6 448.6 1436.3 448.8 1436.1 449 1435.8 449.2 1435.7 449.7L1432.4 457.4 1423.8 458.8 1430.8 442.6C1430.9 441.7 1430.6 440.7 1429.9 440.4 1429.3 440.1 1428.6 440.2 1428.1 440.6 1427.8 440.8 1427.8 440.8 1427.8 441.3L1420.1 459.2 1406.8 460.8 1414.3 447.4 1399.5 451.1 1404.6 438.8 1423.9 436.2C1424.6 436 1425.3 435.5 1425.3 434.3 1425.1 433.6 1424.3 433 1423.4 432.9L1406 435.3 1409.6 427.4 1417.9 426.2C1418.8 426.4 1419.4 425.5 1419.3 424.4 1419.2 423.7 1418.4 423.1 1417.5 423L1410.9 423.9 1415.1 413.5C1415.7 412.7 1415.1 411.9 1414.3 411.3 1413.8 411.3 1413.1 411.4 1412.9 411.6 1412.6 411.8 1412.3 412 1412.3 412.4L1407.9 422.6 1403.9 417.2C1403.3 416.5 1402.1 416.5 1401.6 416.9L1401.6 416.9C1400.9 417.5 1400.7 418.4 1401.3 419.2L1406.5 426 1402.9 434 1392.5 420.2C1391.9 419.5 1391 419.4 1390.2 419.9S1389.4 421.4 1389.9 422.2L1401.6 437.5 1396.4 449.8 1388.6 436.8 1384.4 451.3 1376.2 440.6 1383.7 422.9C1384 421.8 1383.5 421.1 1382.8 420.7 1382.2 420.4 1381.2 420.8 1380.7 421.6L1373.9 437.6 1368.9 430.9 1372 422.9C1372.6 422.1 1372.3 421.1 1371.2 420.8 1370.5 420.4 1369.6 420.8 1369 421.6L1366.5 427.9 1359.8 419C1359.2 418.2 1358.3 418.1 1357.5 418.7S1356.6 420.1 1357.2 420.9L1364 429.8 1357.5 430.8C1357 430.7 1356.8 430.9 1356.5 431.1 1356 431.5 1356 431.9 1355.9 432.4 1356 433.5 1356.8 434.1 1357.8 433.8L1366.3 432.9 1371.6 439.8 1354.2 441.7C1353.9 441.9 1353.6 442.1 1353.4 442.3 1352.9 442.7 1352.8 443.1 1352.8 443.6 1352.8 444.7 1353.7 445.3 1354.6 445L1373.7 442.6 1381.8 453.3 1366.7 453.5 1377.1 464.5 1363.8 466.1 1352.2 450.8C1351.6 450.1 1350.5 450.1 1350 450.5 1349.2 451.1 1349.1 452 1349.7 452.8L1360.1 466.5 1351.5 467.9 1346.3 461C1345.7 460.2 1344.8 460.1 1344 460.7S1343.1 462.1 1343.7 462.9L1347.8 468.3 1336.9 469.7C1336.4 469.7 1336.1 469.9 1335.9 470.1 1335.6 470.3 1335.3 470.9 1335.5 471.6 1335.6 472.3 1336.2 473.1 1337.1 472.7ZM1373.8 456.5L1386.2 456.4 1389.6 444.5 1396.2 455.2 1408 452.3 1402.2 463.1 1410.5 472 1398.2 472.2 1394.7 484 1388.4 473.6 1376.4 476.3 1382.4 465.7 1373.8 456.5Z" fill="rgba(51, 121, 194, 0.58)"></path><path d="M465.5 181.2L502.7 195 507.5 204.9 493.5 224.9 482.3 224.1 456.9 193.4C456.5 193.1 456.5 193.1 456.1 192.9 455.3 192.3 454.3 192.2 453.1 193.1 452.2 194.2 452.1 195.3 453 196.5L475.3 223.3 458.1 221.8 448.1 210.1C448.1 210.1 447.7 209.8 447.7 209.8 447 209.3 445.9 209.1 444.7 210 443.7 210.6 443.7 212.3 444.6 213.5L450.8 221.4 438.2 220.1C437.1 220 435.9 220.9 435.5 222.3S436.6 224.9 438.1 225.3L450.3 226.3 442.8 232.8C441.6 233.7 441.5 235.4 442.4 236.6 443.2 237.2 444.7 237.6 445.9 236.7L457.6 226.7 475.1 228.5 448.4 250.7C447.1 251.6 447.1 253.4 447.6 254.3 448.8 255.1 450.2 255.6 451.5 254.7L481.8 229 493.3 230.1 503.3 251.8 496.7 261.2 457.7 268.4C456.3 268.6 455.5 269.8 455.7 271.2S457.2 273.3 458.5 273.1L492.9 266.7 482.7 281.3 468 283.8C466.6 284.1 465.8 285.2 465.8 287S467.2 289.1 468.5 288.9L478.8 286.8 471.4 297.4C470.5 298.5 471.2 300.2 472.3 301 473.5 301.8 474.9 301.6 475.7 300.4L483.1 289.8 484.9 299.8C484.8 301.5 486 302.4 487.6 301.7 489 301.5 489.8 300.3 489.6 299L487 284.3 497.2 269.7 502.9 304.2C503.1 305.6 504.7 306.7 506 306.4S508.2 305 508 303.7L501 264.2 507.7 254.8 531.8 257.1 536.4 267.4 522.6 304.6C522.2 306 523.1 307.2 524.2 308.1 525.7 308.5 526.9 307.6 527.7 306.4L539.6 273.7 546.8 289.3 541.4 303.7C541 305.1 541.9 306.4 543 307.2 544.1 307.3 545.7 306.7 546.1 305.3L549.7 296 555.2 307.5C555.7 308.4 557.1 308.9 558.5 308.6 559.7 307.7 560.1 306.3 559.6 305.3L554.1 293.9 564 297.3C565.1 297.5 566.7 296.8 566.9 295.8 567.7 294.6 567.2 293.6 566 292.8 566 292.8 565.6 292.5 565.6 292.5L551.2 287.1 544 271.5 576.8 283.4C578.2 283.8 579.6 283.6 580 282.1 580.4 280.6 579.9 279.7 579.1 279.2 578.7 278.9 578.7 278.9 578.7 278.9L540.8 265.2 536.3 255 550.3 234.9 561.2 236.1 587.3 266.7C587.8 267.6 589.5 267.7 590.5 267.2 591.7 266.3 591.7 264.5 590.8 263.3L568.6 236.6 585.7 238 595.7 249.7C596.6 250.9 598 251.4 598.9 250.2 600.1 249.3 600.1 247.6 599.6 246.6L592.7 238.9 605.4 240.1C606.7 239.9 607.9 239 608.3 237.5 608.2 236.8 607.7 235.9 606.9 235.3 606.5 235.1 606.5 235.1 605.9 235.2L593.3 233.9 601 227.1C602.2 226.2 602 224.8 601.5 223.9 601.1 223.6 601.1 223.6 600.7 223.3 599.9 222.8 598.8 222.6 597.9 223.1L586.2 233.1 569.1 231.6 595.8 209.4C596.7 208.2 597.1 206.7 595.9 205.9 595.8 205.2 595.8 205.2 595.4 205 594.6 204.4 593.3 204.6 592.3 205.2L561.8 231.2 550.9 230 540.5 208.1 546.8 199 586.3 192.1C587.6 191.9 588.7 190.3 588.5 189S586.7 186.5 585.3 186.7L550.9 193.1 560.9 179 575.8 176C577.2 175.8 578 174.6 577.8 173.3 577.5 171.9 576.4 171.1 575 171.3L565 173.1 572.4 162.5C573 161.7 573 160 571.9 159.1 570.7 158.3 568.7 158.7 568.1 159.4L560.7 170 558.9 160C558.8 159.4 558.7 158.7 558.3 158.4 557.5 157.9 556.8 158 556.2 158.1 554.8 158.3 554 159.5 554.2 160.8L556.5 175.9 546.6 190.1 540.9 155.6C540.8 154.9 540.4 154.7 539.6 154.1 539.2 153.8 538.8 153.6 538.2 153.7 536.8 153.9 535.7 155.5 536 156.8L542.5 196 536.1 205 512.4 203 507.1 192.9 521.2 155.3C521.4 154.2 521.1 152.9 520.3 152.3 520 152 520 152 519.7 152.4 518.5 151.6 516.9 152.2 516.5 153.7L504.6 186.4 497 170.5 502.4 156.1C502.6 155.1 502.1 154.1 501.3 153.6 501.3 153.6 500.9 153.3 500.9 153.3 499.7 152.5 498.1 153.1 497.7 154.6L494.2 164.5 488.8 153C488.7 152.4 488.3 152.1 487.9 151.8 487.1 151.3 486 151.1 485.7 151.5 484.1 152.1 483.7 153.6 483.9 154.9L489.4 166.4 480.2 162.8C478.7 162.4 477.1 163 476.6 164.5 476.5 165.5 477.1 167.1 478.2 167.3L492.6 172.7 499.8 188.3 467 176.5C465.6 176 464.4 177 463.5 178.1 463.4 179.2 464 180.8 465.5 181.2ZM499.4 225.6L510.2 210.3 511.8 207.9 514.6 208.1 532.8 209.7 536 210.2 537.2 212.8 544.9 229.3 546 231.9 544.4 234.2 533.6 249.6 532 251.9 529.2 251.7 511 250.1 508.2 249.9 506.6 247.1 498.9 230.5 497.8 227.9 499.4 225.6Z" fill="rgba(51, 121, 194, 0.58)"></path><path d="M61 236.6L66.3 228.1 69.7 233.9C70 234.6 71 234.9 71.9 234.6 72.6 234 72.9 233 72.6 232.4L68.3 224.6 73.3 216.7 81.9 232.6C82.5 233.6 83.5 234 84.1 233.3 85.1 233 85.4 232.1 84.8 231.1L75.4 213.6 79.7 206.3 99.2 206.8 102.9 213.3 91.5 231.3C91.5 231.6 91.5 231.9 91.5 232.2 91.5 232.6 91.8 233.2 92.1 233.5 93.1 234.2 94 233.9 94.4 233L104.7 216.6 109 224.7 104 233.2C103.7 233.2 103.6 233.5 103.6 233.8 103.6 234.5 103.9 235.1 104.6 235.5 105.2 235.8 106.2 235.5 106.8 234.9L110.8 227.9 116.3 238C116.6 238.7 117.6 239 118.6 238.7 119.2 238.1 119.6 237.1 119.3 236.5L114.1 227.1 120.8 227.2C121.7 227.3 122.4 226.3 122.4 225.7 122.4 224.7 121.8 223.7 120.9 223.7L112.2 223.5 108 215.4 125.9 215.8C126.8 215.9 127.5 215.2 127.5 214.3 127.5 213.3 126.9 212.7 126 212.6L106.1 212.1 102.1 205.3 112.5 188.6 119.8 188.8 129.6 206.7C129.9 207.6 131.2 208 131.9 207.4 132.8 207.1 132.8 206.1 132.5 205.1L123.7 188.9 133 189.1 137.2 197.3C137.5 197.9 138.8 198.3 139.5 198S140.5 196.4 140.2 195.4L136.8 189.2 148 189.5C149 189.6 149.6 188.6 149.6 187.7 149.7 187 149 186 148.1 186L136.9 185.7 140.6 179.4C140.9 178.8 140.9 177.8 140 177.2 139.4 176.8 138.1 177.1 137.7 177.7L133.1 185.6 123.8 185.4 133.5 169.6C133.8 168.7 133.8 167.7 132.9 167.1 132.3 166.7 131 167 130.6 167.6L119.9 185.3 112.6 185.1 103.1 167.9 107.4 161.3 127.3 161.8C128.2 161.8 128.9 161.2 128.9 160.2 128.9 159.3 128.3 158.3 127.4 158.3L109.4 157.8 114.1 149.9 122.8 150.1C123.7 150.2 124.4 149.5 124.4 148.6 124.4 147.6 123.8 147 122.8 146.9L116.1 146.8 121.8 137.6C122.1 137 121.9 135.7 121.2 135.4 120.3 135 119.3 135 119 136L113 145.4 109.3 138.6C108.7 137.9 107.7 137.6 107.1 137.9 106.4 138.2 106.1 138.8 106.1 139.5 106.1 139.5 106.1 139.8 106.4 140.1L111 148.9 106.3 156.8 96.8 139.9C96.5 138.9 95.5 138.6 94.6 139.2 94.2 139.5 93.9 139.8 93.9 140.4 93.9 140.8 93.9 141.1 93.9 141.4L104.3 159.9 100.3 166.2 80.7 165.7 76.8 158.2 87.1 141.2C87.8 140.3 87.5 139.3 86.6 139 85.9 138.3 85 138.6 84.3 139.5L74.9 155 70.4 146.9 75 139.3C75.4 138.7 75.1 137.7 74.4 137.1 73.5 136.7 72.5 136.7 72.2 137.6L68.5 143.3 63.6 134.5C63.3 133.6 62.4 133.5 61.4 133.8 61.1 134.1 60.7 134.8 60.7 135.4 60.7 135.4 60.7 135.7 60.7 136.1L65.9 145.5 57.9 145.3C57.3 145.3 56.3 145.9 56.3 146.8 56.2 147.8 57.2 148.5 57.8 148.5L67.7 148.7 72.3 156.8 52.8 156.3C51.9 156.3 51.2 157.3 51.2 158.2S51.8 159.8 52.7 159.9L74.2 160.4 77.8 167.2 67.5 183.9 59.2 183.7 49.4 165.5C48.8 164.9 47.8 164.5 46.8 164.8 46.5 165.1 46.2 165.8 46.2 166.4 46.2 166.7 46.1 167.1 46.5 167.4L55.3 183.6 46 183.4 41.4 175.3C41.1 174.6 40.2 174.3 39.2 174.6 38.6 175.2 38.2 176.1 38.5 176.8L42.2 183.3 32 183C31.3 183 30.3 183.9 30.3 184.6 30.3 185.5 31.2 186.5 31.9 186.5L42.1 186.8 38.1 192.8C38.1 193.1 38.1 193.4 38.1 193.7 38.1 194.4 38.4 195 38.7 195.3 39.6 195.7 40.6 195.4 41.3 194.8L46 186.9 55.2 187.1 45.5 202.9C44.9 203.8 45.2 204.8 45.8 205.1 46.7 205.8 47.7 205.5 48.4 204.9L59.1 187.2 67.4 187.4 76.9 204.7 72.8 211.3 51.4 210.7C50.5 210.7 49.8 211.3 49.8 212.3 49.8 213.2 50.4 213.9 51.3 213.9L70.8 214.4 65.8 222.3 55.9 222C55.3 222 54.3 223 54.3 223.9 54.3 224.9 55.2 225.5 55.8 225.6L63.8 225.8 58.2 234.9C58.1 235.2 58.1 235.2 58.1 235.5 58.1 236.2 58.4 236.8 58.7 237.2 59.7 237.5 60.7 237.2 61 236.6ZM71.2 187.5L70.3 185.6 71.3 184 79.7 170.5 80.7 168.9 82.6 169 98.3 169.4 100.2 169.4 101.1 171 108.7 185 109.7 186.6 108.6 188.5 100.3 201.7 99.3 203.6 97.4 203.6 81.7 203.2 79.8 203.1 78.9 201.2 71.2 187.5Z" fill="rgba(51, 121, 194, 0.58)"></path><path d="M729.9 140.4L722.9 115.9 727.5 107.8 729.9 116.1C729.9 117.1 730.9 117.4 731.8 117.4 732.5 117 733.1 116.1 732.8 115.4L729.7 104 734.1 95.9 738.7 103.8 735.7 115.4C735.7 115.4 735.7 115.7 735.7 115.7 735.7 116.4 736.3 117 737 117.3 737.9 117.3 738.6 117 738.9 116L741 107.6 745.6 115.6 739.5 140.3C739.5 140.3 739.2 140.6 739.2 140.6 739.2 141.3 739.9 141.9 740.5 142.2 741.5 142.5 742.4 141.9 742.4 140.9L747.9 119.4 753.8 128.9 751.3 138.5C751.3 138.5 751.3 138.5 751.3 138.9 751.4 139.5 751.7 140.1 752.3 140.4 753.3 140.4 754.2 140.1 754.6 139.1L756.1 132.7 760.3 139.7C760.7 140.6 761.6 140.6 762.3 140.3 763.2 140 763.5 139 762.9 138.1L758.9 131.1 765 132.9C766 132.9 766.9 132.6 766.9 131.6 767.2 130.6 766.9 130 765.9 129.7L756.3 127.3 750.7 117.7 772.6 123.2C773.2 123.5 774.2 122.9 774.5 121.9 774.5 121.2 774.1 120.3 773.2 120L748.4 113.9 743.8 106 752.2 108.1C753.2 108.4 753.8 107.8 754.1 106.8 754.4 106.2 753.8 105.2 753.1 104.9L741.6 102.2 736.6 94.3 745.9 94.1 754.4 102.3C755 103 756 102.9 756.6 102.3 757.2 102 757.2 100.7 756.6 100.1L750.4 94.1 759.7 93.9 777.9 111.9C778.5 112.5 779.5 112.5 780.1 111.9 780.7 111.2 780.7 110.3 780.1 109.6L764.2 93.9 775 93.7 782.2 100.7C782.8 101.3 783.8 101.3 784.4 100.6 785 100 785 99 784.4 98.4L779.8 93.6 787.8 93.5C788.8 93.5 789.4 92.9 789.4 91.9 789.4 91 788.7 90.3 787.8 90.3L779.8 90.4 784.2 85.9C784.8 85.3 784.8 84.3 784.2 83.7S782.6 83 781.9 83.7L775.3 90.5 764.1 90.7 779.6 74.8C780.2 74.1 780.2 73.2 779.5 72.5 778.9 71.9 777.9 71.9 777.3 72.6L759.6 90.7 750.4 90.9 756.3 84.7C757 84 757 83.1 756.3 82.5 755.7 81.8 754.7 81.8 754.1 82.5L745.9 90.9 736.9 91.1 741.3 83.3 752.8 79.9C753.4 79.6 754 78.7 753.7 78 753.4 77.1 752.7 76.7 751.8 76.8L743.5 79.1 747.8 71.4 772.4 64.3C773.3 64 773.6 63.3 773.6 62.4 773.3 61.4 772.3 61.1 771.7 61.1L750 67.2 755.6 57.5 764.9 54.8C765.8 54.8 766.1 53.8 766.1 52.9 765.8 52.2 764.8 51.6 763.9 51.9L757.8 53.6 761.6 46.5C762.2 45.9 761.9 44.9 760.9 44.3 760.2 44 759.3 44.3 759 45L754.9 52.1 753.2 45.7C752.9 44.7 751.9 44.4 751.3 44.8 750.3 44.8 750 45.4 750 46.1 750 46.4 750 46.4 750 46.7L752.7 55.9 747.1 65.6 741.1 44.3C741 43.3 740.1 43 739.1 43 738.5 43.3 738.2 44 738.2 44.6 738.2 45 738.2 45 738.2 45L744.9 69.8 740.6 77.6 738.2 69.3C737.9 68.3 737.2 68 736.3 68 735.6 68.3 735 69 735 69.6 735 70 735 70 735 70.3L738.4 81.8 734 89.5 729.4 81.9 732.1 70.3C732.4 69.4 731.8 68.4 731.1 68.1 730.2 68.1 729.2 68.4 729.2 69.4L727.1 77.8 722.2 70.1 728.6 45.1C728.9 44.4 728.2 43.5 727.6 43.2 726.6 43.2 725.7 43.5 725.4 44.5L719.9 66 714.3 56.5 716.8 47.2C717.1 46.2 716.4 45.3 715.5 45.3 714.8 45 713.9 45.3 713.6 46.3L712 52.7 707.8 45.7C707.5 45.1 706.5 44.8 705.5 45.1 705.2 45.4 704.9 46.1 704.9 46.7 704.9 46.7 704.9 47 704.9 47.3L709.2 54.3 702.8 52.8C702.1 52.5 701.2 53.2 700.9 53.8 700.9 54.1 700.9 54.1 700.9 54.1 700.9 55.1 701.5 55.7 702.2 55.7L711.5 58.1 717.4 67.6 695.5 62.2C694.6 62.2 693.9 62.5 693.6 63.5 693.6 63.5 693.6 63.8 693.6 63.8 693.7 64.5 694 65.1 694.9 65.4L719.7 71.8 724.3 79.4 715.9 77.3C715 77.3 714 77.6 714 78.6 713.7 78.6 713.7 78.9 713.7 78.9 713.7 79.5 714.4 80.2 715 80.5L726.6 83.2 731.2 91.1 722.2 91.3 713.8 83.1C713.1 82.4 711.8 82.4 711.2 83.1 710.9 83.7 710.9 84.7 711.2 85.3L717.7 91.3 708.4 91.5 690.3 73.8C689.6 73.2 688.7 73.2 688 73.8 687.4 74.5 687.4 75.4 688.1 76.1L704 91.5 692.8 91.7 685.9 85.1C685.3 84.4 684.3 84.4 683.7 85.1S683.1 86.7 683.7 87.3L688.3 91.7 680.3 91.9C679.3 91.9 678.7 92.5 678.7 93.5 678.7 94.4 679.4 95.1 680.3 95.1L688.3 94.9 683.9 99.8C683.6 100.1 683.3 100.5 683.3 100.8 683.3 101.1 683.6 101.7 683.9 102 684.6 102.7 685.6 102.7 686.2 102L692.8 94.9 704 94.7 688.5 110.9C688.2 111.3 687.9 111.6 687.9 111.9 687.9 112.2 688.3 112.9 688.6 113.2 689.2 113.8 690.2 113.8 690.8 113.1L708.5 94.7 717.8 94.5 711.4 100.7C711.1 101 711.1 101.7 711.1 102 711.1 102.3 711.2 102.6 711.5 102.9 712.1 103.6 713.4 103.5 713.7 102.9L722.2 94.5 731.2 94.3 726.8 102.4 715.4 105.4C714.7 105.8 714.1 106.4 714.1 107.1 714.1 107.4 714.1 107.4 714.4 107.4 714.4 108.3 715.4 109 716.4 108.6L724.6 106.3 720.3 114.3 695.4 121.1C694.8 121.4 694.5 122.1 694.5 122.7 694.5 123 694.5 123 694.5 123 694.8 124 695.5 124.6 696.4 124.3L718.1 118.2 712.5 127.9 703.2 130.6C702.3 130.9 702 131.6 702 132.2 702 132.2 702 132.5 702 132.5 702.3 133.5 703.3 133.8 703.9 133.8L710.3 131.8 706.2 138.9C706.2 139.2 706.2 139.5 706.2 139.8 706.2 140.1 706.6 140.8 706.9 141.1 707.9 141.4 708.8 141.4 709.1 140.4L713.2 133.3 714.9 139.7C715.2 140.6 716.2 141 716.8 140.9 717.8 140.6 718.1 139.6 718.1 138.7L715.4 129.4 720.7 119.8 726.7 141.1C727.1 142.1 728 142.7 728.7 142.4 729.6 142 730.3 141.4 729.9 140.4Z" fill="rgba(51, 121, 194, 0.58)"></path><path d="M320.5 607.2L302.1 564.6 317.6 526.2 343.1 558.8 337.1 604.9C337.1 604.9 337.2 605.4 337.2 605.4 337.3 606.5 338.6 607.5 339.8 607.9 341.5 608.2 343 606.9 342.8 605.2L347.9 564.9 360.3 580.7 358.3 598.5C358.3 598.5 358.4 599.1 358.4 599.1 358.5 600.2 359.8 601.1 361 601.5 362.7 601.9 364.2 600.5 364 598.9L365.7 586.7 374.7 598.5C375.4 599.5 377.7 599.8 378.7 599.1 380.3 598.3 380 596 379.3 595L370.3 583.3 382.4 585C384.1 585.3 385.6 583.9 385.4 582.3 385.7 580.5 384.4 579 382.7 579.3L364.9 577.2 353.1 561.4 393.4 566.5C395.1 566.8 396.6 565.4 396.4 563.8 396.7 562 395.4 560.5 393.7 560.8L347.6 554.8 322.1 522.2 363.7 516.3 401 544.5C402.3 545.4 404 545.2 404.9 543.9 405.9 542.7 405.6 541 404.4 540L371.5 515.2 391.4 512.4 405.4 522.9C406.6 523.9 408.3 523.7 409.2 522.4 410.2 521.1 410 519.5 408.7 518.5L399.2 511.4 414.7 509.2C416.5 509.5 417.4 507.7 417.1 506 416.9 504.4 415.6 503.4 414 503.6L399.5 505.7 406.7 496.2C407.6 494.9 407.4 493.2 406.1 492.3S403.2 491.6 402.3 492.8L391.8 506.7 371.8 509.5 396.6 476.7C397.6 475.4 397.3 473.7 396.1 472.8 394.8 471.8 393.1 472.1 392.2 473.3L364 510.6 323 516.4 338.6 478 380.2 460.3C381.8 459.5 382.1 457.8 381.9 456.1 381.1 454.5 379.3 454.2 377.7 454.4L340.3 470.4 347.9 451.8 364.5 445C366 444.2 366.4 442.4 366.1 440.8 365.3 439.2 363.6 438.9 362.5 439L351.3 444 356.7 430.2C357.1 429 356.8 426.8 355.1 426.5 353.3 426.2 351.7 426.4 351.4 428.2L345.9 441.9 341 430.7C340.2 429.2 338.4 428.8 337.3 429 336.3 429.7 335.3 431 335.5 432.1 335.5 432.1 335.6 432.6 335.6 432.6L342.4 449.2 334.9 467.8 318.9 430.4C318.1 428.9 316.3 428.5 315.2 428.7 314.2 429.4 313.3 430.7 313.4 431.8 313.4 431.8 313.5 432.3 313.5 432.3L331.9 475 316.4 513.4 290.9 480.7 296.8 434.7C297.2 432.9 295.8 431.4 294.2 431.6 292.4 431.3 290.9 432.7 291.1 434.3L286.1 474.6 273.7 458.8 275.7 441C276 439.3 274.7 437.8 273 438 271.3 437.7 269.8 439 270 440.7L268.3 452.8 259.3 441.1C258.6 440 256.3 439.8 255.3 440.5 254.2 441.2 253.8 442.4 254 443.5 254.1 444.1 254.1 444.6 254.8 445.1L263.8 456.8 251.7 455.1C249.9 454.8 248.4 456.2 248.6 457.8 248.6 457.8 248.7 458.4 248.7 458.4 248.9 459.5 250.1 460.4 251.3 460.8L269.1 462.9 281.5 478.7 241.2 473.6C239.5 473.2 238 474.6 238.2 476.2 238.2 476.2 238.3 476.8 238.3 476.8 238.4 477.9 239.7 478.9 240.9 479.3L287 485.2 312.5 517.9 271.4 523.6 234.1 495.5C232.9 494.5 231.2 494.8 230.2 496 229.3 497.3 229.5 499 230.8 499.9L263.1 524.8 243.1 527.6 229.2 517.1C228 516.1 226.3 516.4 225.4 517.6S224.6 520.6 225.9 521.5L235.4 528.7 221 530.7C219.3 530.9 218.3 532.2 218.6 533.8 218.8 535.5 220.1 536.5 221.7 536.2L236.2 534.2 229 543.7C228.5 544.3 228.1 545 228.2 546.1S229 547.7 229.6 548.1C230.9 549.1 232.6 548.9 233.5 547.6L244 533.7 264 530.9 239.2 563.8C238.7 564.4 238.2 565 238.4 566.1 238.5 566.7 239.2 567.7 239.8 568.2 241.1 569.2 242.7 568.9 243.7 567.7L271.8 530.3 312.8 524.6 297.3 563 254.6 581.4C253.6 582.1 252.7 583.4 252.8 584.5 252.8 584.5 252.9 585 252.9 585 253.7 586.6 255.4 586.9 256.5 586.8L293.9 570.8 286.3 589.4 269.7 596.2C268.7 596.9 267.8 598.2 267.9 599.3 267.9 599.3 268 599.9 268 599.9 268.8 601.5 270.5 601.8 271.6 601.6L282.8 596.7 277.4 610.4C277.5 611 277 611.6 277.1 612.2 277.2 613.3 277.9 614.3 279.1 614.7 280.9 615 282.5 614.8 282.8 613.1L288.3 599.3 293.2 610.5C294 612.1 295.8 612.4 296.9 612.2 298.4 611.4 298.8 609.7 298.6 608.6L291.8 592 299.3 573.4 315.3 610.8C316.1 612.4 317.8 612.7 319 612.5 320.4 610.6 321.3 608.8 320.5 607.2Z" fill="rgba(51, 121, 194, 0.58)"></path></g><defs><mask id="SvgjsMask1002"><rect width="1440" height="560" fill="#ffffff"></rect></mask><filter id="SvgjsFilter1003"><feGaussianBlur stdDeviation="1"></feGaussianBlur></filter></defs></svg>